<svg width="64" height="64" viewBox="0 0 64 64" fill="none" xmlns="http://www.w3.org/2000/svg">
<g clip-path="url(#clip0_136_1873)">
<path fill-rule="evenodd" clip-rule="evenodd" d="M2.5 1C1.67157 1 1 1.67157 1 2.5V9.40425C1 9.6804 0.776142 9.90425 0.5 9.90425C0.223858 9.90425 0 9.6804 0 9.40425V2.5C0 1.11929 1.11929 0 2.5 0H9.40426C9.6804 0 9.90426 0.223858 9.90426 0.5C9.90426 0.776142 9.6804 1 9.40426 1H2.5ZM54.0957 0.5C54.0957 0.223858 54.3196 0 54.5957 0H61.5C62.8807 0 64 1.11929 64 2.5V9.40426C64 9.6804 63.7761 9.90426 63.5 9.90426C63.2239 9.90426 63 9.6804 63 9.40426V2.5C63 1.67157 62.3284 1 61.5 1H54.5957C54.3196 1 54.0957 0.776142 54.0957 0.5ZM0.5 54.0957C0.776142 54.0957 1 54.3196 1 54.5957V61.5C1 62.3284 1.67157 63 2.5 63H9.40425C9.6804 63 9.90425 63.2239 9.90425 63.5C9.90425 63.7761 9.6804 64 9.40425 64H2.5C1.11929 64 0 62.8807 0 61.5V54.5957C0 54.3196 0.223858 54.0957 0.5 54.0957ZM63.5 54.0957C63.7761 54.0957 64 54.3196 64 54.5957V61.5C64 62.8807 62.8807 64 61.5 64H54.5957C54.3196 64 54.0957 63.7761 54.0957 63.5C54.0957 63.2239 54.3196 63 54.5957 63H61.5C62.3284 63 63 62.3284 63 61.5V54.5957C63 54.3196 63.2239 54.0957 63.5 54.0957Z" fill="white"/>
</g>
<defs>
<clipPath id="clip0_136_1873">
<rect width="64" height="64" fill="white"/>
</clipPath>
</defs>
</svg>
