<svg width="271" height="67" viewBox="0 0 271 67" fill="none" xmlns="http://www.w3.org/2000/svg">
<path d="M24.9295 25.9406C18.2238 22.4394 12.5437 19.6544 12.5437 14.2435C12.5437 10.1853 15.7782 6.9228 20.6694 6.9228C27.3751 6.9228 34.7909 12.1746 38.4988 23.7922V0.0795716L33.3709 3.50119C30.4519 1.7506 26.5074 0 20.5905 0C9.62469 0 0.710019 5.72922 0.710019 17.6651C0.710019 29.0439 8.44133 33.7387 15.936 37.7969C22.6417 41.4572 29.2685 44.7197 29.2685 50.5285C29.2685 56.0986 25.2451 59.7589 20.3539 59.7589C13.8059 59.7589 5.99571 54.8254 0 38.9905L0.236673 67L6.15349 63.4988C10.1769 65.329 14.5948 67 20.5905 67C31.3197 67 41.8122 61.2708 41.8122 48.38C41.8122 36.1259 32.8186 30.2375 24.9295 25.9406ZM12.0703 29.5214C5.12791 24.9857 4.02344 17.7447 7.73131 10.6627C5.75904 18.1425 8.75689 23.2352 14.2004 25.861L15.6993 29.2031L12.0703 29.5214ZM20.275 34.5344L18.776 31.1128L22.4839 30.6354L23.8251 34.057L20.275 34.5344ZM33.6075 56.576C36.2109 49.2553 34.1598 42.3325 28.4796 39.3088L26.9018 35.9667L30.6097 35.6485C37.3943 40.2637 37.8676 50.3694 33.6075 56.576Z" fill="#E05418"/>
<path d="M48.2183 1.51871C48.4351 1.51871 48.6212 1.53471 48.7766 1.56673C49.8114 1.53471 50.6356 1.51871 51.2491 1.51871H52.6112L52.9179 1.80081C52.9343 1.74079 52.9773 1.71078 53.0468 1.71078L53.1081 1.80081V3.82356H52.9793C52.7748 3.45542 52.6725 3.20533 52.6725 3.07328V2.88121C52.468 2.88121 52.2615 2.66313 52.0529 2.22697H51.3718V4.62185C51.3718 4.79391 51.3514 5.014 51.3105 5.28209C51.3514 5.33411 51.3718 5.39614 51.3718 5.46816C51.3309 5.89232 51.3105 6.19043 51.3105 6.36249C51.3105 6.63459 51.5989 6.90069 52.1756 7.16078V7.25682H49.0834V7.2088C49.5783 6.9287 49.8257 6.70862 49.8257 6.54856C49.8257 6.48053 49.8462 6.41851 49.8871 6.36249C49.8462 6.01836 49.8257 5.72025 49.8257 5.46816V5.42014C49.8257 4.89995 49.8871 4.27372 50.0098 3.54145C49.8871 2.97725 49.8257 2.53908 49.8257 2.22697H49.2061C49.0588 2.34701 48.7296 2.87921 48.2183 3.82356H48.1569V1.84883L48.2183 1.51871Z" fill="#B99F65"/>
<path d="M54.5031 1.51871H54.8528C54.8937 1.51871 54.9141 1.53471 54.9141 1.56673L55.0307 1.51871H57.1167L56.4787 2.13694V2.27499C56.4787 2.70314 56.4398 3.05127 56.3621 3.31937C56.4398 3.41941 56.4787 3.63949 56.4787 3.97961L56.5952 3.9316H57.7548L57.8714 3.97961V2.13694L57.2333 1.51871H60.0801C60.0801 1.55072 59.8286 1.7568 59.3255 2.13694V2.65913C59.3255 2.80718 59.2662 2.91722 59.1475 2.98925C59.2662 3.25735 59.3255 3.44542 59.3255 3.55346V5.16205C59.3255 5.22607 59.2662 5.25808 59.1475 5.25808C59.2662 6.29847 59.3827 6.81866 59.4972 6.81866L59.9022 7.10677C59.8449 7.23081 59.7877 7.29283 59.7304 7.29283H57.988C57.8489 7.29283 57.6546 7.24682 57.4051 7.15478V7.05875C57.4828 7.05875 57.6382 6.9327 57.8714 6.68061V4.69388H56.4787V5.16205C56.3641 5.51818 56.3069 5.78828 56.3069 5.97235C56.4214 6.21244 56.4991 6.48053 56.54 6.77664C56.5891 6.77664 56.7813 6.9327 57.1167 7.24482V7.29283H54.2761V7.2028C54.7792 6.94271 55.0307 6.72062 55.0307 6.53655V5.68424C55.0307 5.65223 55.0491 5.63622 55.0859 5.63622C55.0859 5.60421 55.0675 5.58821 55.0307 5.58821L55.2025 4.78391C55.1248 4.53582 55.0859 4.34775 55.0859 4.2197L55.1412 3.88958C55.0675 3.88958 55.0307 3.85757 55.0307 3.79355V2.27499C55.0307 2.16295 54.8548 1.97488 54.5031 1.71078V1.51871Z" fill="#B99F65"/>
<path d="M60.7388 1.51871H61.837C62.0538 1.52671 62.1622 1.55872 62.1622 1.61474C62.3994 1.58273 62.5712 1.56673 62.6776 1.56673C62.9557 1.56673 63.2788 1.59874 63.647 1.66276C63.6756 1.56673 63.8494 1.51871 64.1685 1.51871H65.463C65.463 1.58273 65.4835 1.61474 65.5244 1.61474L65.463 1.71078V3.45742L65.5244 3.78754L65.3955 3.83556C64.7247 2.78317 64.3362 2.24698 64.2298 2.22697H63.0702V3.97961L63.1991 3.9316H63.4568L63.5856 3.97961C63.6265 3.88758 63.8637 3.77554 64.2973 3.64349H64.4261V3.69151C64.4261 3.9276 64.4057 4.4798 64.3648 5.34812C64.4057 5.40814 64.4261 5.45416 64.4261 5.48617L63.5181 4.68787H63.0702V6.57257C63.0989 6.57257 63.2277 6.58857 63.4568 6.62059C63.8985 6.58857 64.1562 6.55856 64.2298 6.53055C64.2298 6.55856 64.2523 6.57257 64.2973 6.57257C64.5018 6.16442 64.7186 5.96034 64.9476 5.96034V5.91233C64.9476 5.80829 64.9251 5.73026 64.8802 5.67824C65.0519 5.13404 65.2462 4.80392 65.463 4.68787C65.463 4.96798 65.4835 5.10803 65.5244 5.10803L65.463 5.20406V7.14278L65.5244 7.23881L65.3955 7.28083H64.101C64.0601 7.28083 64.0396 7.29684 64.0396 7.32885L63.9108 7.28083H63.0702L62.7451 7.23881V7.28083L62.6162 7.23881C62.4322 7.23881 61.8063 7.26883 60.7388 7.32885L60.6713 7.23881C60.6713 7.2068 60.931 7.01673 61.4505 6.6686V5.34812C61.4505 4.73589 61.5139 4.1997 61.6407 3.73953C61.5139 3.4034 61.4505 3.1213 61.4505 2.89321V2.13694L60.7388 1.61474V1.51871Z" fill="#B99F65"/>
<path d="M70.1671 1.51871H73.2225C73.2225 1.55872 72.9403 1.7628 72.3758 2.13093V2.69514C72.2899 2.69514 72.247 2.71115 72.247 2.74316C72.3329 3.85157 72.3758 4.53782 72.3758 4.80192V6.44652C72.3922 6.51055 72.4372 6.54256 72.5108 6.54256H73.2225C73.3329 6.50654 73.7461 5.75427 74.4618 4.28573H74.5907V6.30847C74.5375 6.62059 74.4516 6.77664 74.333 6.77664L74.6582 7.1968C74.5723 7.22881 74.5068 7.24482 74.4618 7.24482C73.6683 7.24482 73.1039 7.26082 72.7685 7.29283C72.1263 7.26082 71.388 7.24482 70.5536 7.24482H69.9708V7.1968L70.8175 6.58457V6.30847C70.8175 6.09239 70.8379 5.90432 70.8788 5.74426C70.8379 5.5802 70.8175 5.39213 70.8175 5.18006V5.13204C70.8175 5.10003 70.795 5.08402 70.75 5.08402C70.795 5.04 70.8379 4.83793 70.8788 4.4778C70.8379 3.76554 70.8175 3.09329 70.8175 2.46106V2.317C70.8175 2.28499 70.795 2.26898 70.75 2.26898L70.8175 2.17895C70.8134 2.12293 70.617 1.98088 70.2285 1.75279L70.0321 1.56673L70.1671 1.51871Z" fill="#B99F65"/>
<path d="M75.7586 1.51871H76.8568C77.0736 1.52671 77.182 1.55872 77.182 1.61474C77.4192 1.58273 77.591 1.56673 77.6974 1.56673C77.9755 1.56673 78.2986 1.59874 78.6668 1.66276C78.6954 1.56673 78.8692 1.51871 79.1883 1.51871H80.4828C80.4828 1.58273 80.5033 1.61474 80.5442 1.61474L80.4828 1.71078V3.45742L80.5442 3.78754L80.4153 3.83556C79.7445 2.78317 79.356 2.24698 79.2496 2.22697H78.09V3.97961L78.2189 3.9316H78.4766L78.6054 3.97961C78.6463 3.88758 78.8836 3.77554 79.3171 3.64349H79.446V3.69151C79.446 3.9276 79.4255 4.4798 79.3846 5.34812C79.4255 5.40814 79.446 5.45416 79.446 5.48617L78.5379 4.68787H78.09V6.57257C78.1187 6.57257 78.2475 6.58857 78.4766 6.62059C78.9183 6.58857 79.176 6.55856 79.2496 6.53055C79.2496 6.55856 79.2721 6.57257 79.3171 6.57257C79.5216 6.16442 79.7384 5.96034 79.9675 5.96034V5.91233C79.9675 5.80829 79.945 5.73026 79.9 5.67824C80.0718 5.13404 80.266 4.80392 80.4828 4.68787C80.4828 4.96798 80.5033 5.10803 80.5442 5.10803L80.4828 5.20406V7.14278L80.5442 7.23881L80.4153 7.28083H79.1208C79.0799 7.28083 79.0594 7.29684 79.0594 7.32885L78.9306 7.28083H78.09L77.7649 7.23881V7.28083L77.636 7.23881C77.452 7.23881 76.8262 7.26883 75.7586 7.32885L75.6911 7.23881C75.6911 7.2068 75.9509 7.01673 76.4703 6.6686V5.34812C76.4703 4.73589 76.5337 4.1997 76.6605 3.73953C76.5337 3.4034 76.4703 3.1213 76.4703 2.89321V2.13694L75.7586 1.61474V1.51871Z" fill="#B99F65"/>
<path d="M84.7368 1.5007C84.9045 1.5007 85.3238 1.60874 85.9946 1.82482C86.2318 1.68077 86.4404 1.60874 86.6204 1.60874V3.6735C85.8432 2.71315 85.1868 2.23297 84.6509 2.23297C83.9106 2.23297 83.5404 3.21933 83.5404 5.19206C83.8349 6.10039 84.2337 6.55456 84.7368 6.55456C85.0927 6.55456 85.2706 6.35449 85.2706 5.95434V4.7599C85.2706 4.57183 85.0641 4.38977 84.6509 4.2137V4.10566H86.8903C87.009 4.12967 87.0683 4.2017 87.0683 4.32174L86.6204 4.53782V7.25682H86.5284C86.4261 7.25682 86.2482 7.18279 85.9946 7.03474C85.7737 7.18279 85.5344 7.25682 85.2767 7.25682H85.0068C84.8718 7.25682 84.7532 7.22081 84.6509 7.14878C84.5446 7.22081 84.4239 7.25682 84.289 7.25682H84.2031C82.9228 7.25682 82.1763 6.27846 81.9637 4.32174C82.2868 2.51307 83.0333 1.60874 84.2031 1.60874L84.7368 1.5007Z" fill="#B99F65"/>
<path d="M87.9724 1.51871H89.0706C89.2874 1.52671 89.3958 1.55872 89.3958 1.61474C89.633 1.58273 89.8048 1.56673 89.9111 1.56673C90.1893 1.56673 90.5124 1.59874 90.8805 1.66276C90.9092 1.56673 91.083 1.51871 91.402 1.51871H92.6966C92.6966 1.58273 92.717 1.61474 92.7579 1.61474L92.6966 1.71078V3.45742L92.7579 3.78754L92.6291 3.83556C91.9583 2.78317 91.5697 2.24698 91.4634 2.22697H90.3038V3.97961L90.4326 3.9316H90.6903L90.8192 3.97961C90.8601 3.88758 91.0973 3.77554 91.5309 3.64349H91.6597V3.69151C91.6597 3.9276 91.6393 4.4798 91.5984 5.34812C91.6393 5.40814 91.6597 5.45416 91.6597 5.48617L90.7517 4.68787H90.3038V6.57257C90.3324 6.57257 90.4613 6.58857 90.6903 6.62059C91.1321 6.58857 91.3898 6.55856 91.4634 6.53055C91.4634 6.55856 91.4859 6.57257 91.5309 6.57257C91.7354 6.16442 91.9522 5.96034 92.1812 5.96034V5.91233C92.1812 5.80829 92.1587 5.73026 92.1137 5.67824C92.2855 5.13404 92.4798 4.80392 92.6966 4.68787C92.6966 4.96798 92.717 5.10803 92.7579 5.10803L92.6966 5.20406V7.14278L92.7579 7.23881L92.6291 7.28083H91.3345C91.2936 7.28083 91.2732 7.29684 91.2732 7.32885L91.1443 7.28083H90.3038L89.9786 7.23881V7.28083L89.8498 7.23881C89.6657 7.23881 89.0399 7.26883 87.9724 7.32885L87.9049 7.23881C87.9049 7.2068 88.1646 7.01673 88.6841 6.6686V5.34812C88.6841 4.73589 88.7475 4.1997 88.8743 3.73953C88.7475 3.4034 88.6841 3.1213 88.6841 2.89321V2.13694L87.9724 1.61474V1.51871Z" fill="#B99F65"/>
<path d="M93.7479 1.51871H94.9198C95.4106 1.51871 95.8319 1.88684 96.1837 2.62311L97.331 4.05764V2.07091C97.2737 2.07091 97.0631 1.96087 96.699 1.74079V1.51871H99.3434V1.74079C98.8607 1.74079 98.6194 1.99889 98.6194 2.51508V3.3974C98.6194 3.61748 98.6501 3.72752 98.7114 3.72752L98.6194 4.27972V6.69261L98.7114 7.4669L98.5274 7.57494C97.8116 6.58657 96.9956 5.52418 96.0794 4.38776C96.0794 4.27972 95.9894 4.16968 95.8094 4.05764V6.82466C96.2266 6.97272 96.4352 7.11877 96.4352 7.26282H93.84C93.84 7.11877 94.0506 6.97272 94.4719 6.82466V2.07091L93.7479 1.74079V1.51871Z" fill="#B99F65"/>
<path d="M100.481 1.51871H101.548C102.98 1.51871 103.953 1.92286 104.469 2.73115C104.469 2.87521 104.624 3.23334 104.935 3.80555C104.98 4.12567 105.002 4.31174 105.002 4.36376C104.855 5.66824 104.501 6.32048 103.941 6.32048C103.593 6.72462 103.393 6.9267 103.34 6.9267C102.62 7.14678 101.933 7.25682 101.278 7.25682C100.812 7.22481 100.303 7.2088 99.7505 7.2088H99.6217V7.16078L100.352 6.60258V6.23044L100.413 5.67224L100.548 5.71425H100.616V5.67224C100.44 5.33211 100.352 5.11403 100.352 5.018V4.78391C100.352 3.95561 100.395 3.33338 100.481 2.91722C100.395 2.17295 100.196 1.80081 99.8855 1.80081V1.70478C100.18 1.58073 100.378 1.51871 100.481 1.51871ZM101.812 2.26898L101.879 2.35902V6.46453H101.947C102.724 6.46453 103.211 5.90432 103.407 4.78391V4.2257C103.407 4.19369 103.43 4.17769 103.475 4.17769L103.407 4.08765V3.89558C103.252 2.83919 102.853 2.311 102.211 2.311L101.812 2.26898Z" fill="#B99F65"/>
<path d="M111.602 1.51871H112.486C113.889 1.51871 114.719 2.315 114.977 3.90759V4.50781C114.977 5.48417 114.635 6.1204 113.952 6.41651C113.952 6.79265 113.414 7.07275 112.339 7.25682C110.702 7.25682 109.774 6.26045 109.553 4.26772C109.553 3.19132 110.14 2.35502 111.314 1.7588C111.343 1.59874 111.439 1.51871 111.602 1.51871ZM111.314 3.31337V5.10203C111.314 5.97835 111.705 6.41651 112.486 6.41651C112.973 6.41651 113.265 5.82029 113.363 4.62785V4.02763C113.363 2.83519 112.973 2.23897 112.191 2.23897C111.606 2.43905 111.314 2.79718 111.314 3.31337ZM112.191 3.6735H112.339C112.469 3.6735 112.713 3.87157 113.069 4.26772V4.38776C112.68 4.78791 112.486 5.06601 112.486 5.22207H112.339C112.183 5.22207 111.889 4.90395 111.455 4.26772L112.191 3.6735Z" fill="#B99F65"/>
<path d="M116.151 1.51871H116.899C117.75 1.51871 118.398 1.60074 118.844 1.7648C119.744 1.60074 120.392 1.51871 120.789 1.51871V3.84156C120.728 3.84156 120.28 3.35338 119.445 2.37702H118.396V4.08165C118.895 3.92159 119.145 3.79955 119.145 3.71552C119.546 3.83956 119.746 3.96161 119.746 4.08165V5.42615C119.231 5.018 118.781 4.81392 118.396 4.81392V6.15842C118.396 6.45052 118.597 6.77464 118.998 7.13077L118.249 7.25682H116.151V7.13077L116.752 6.52455V4.93397C116.752 4.28173 116.801 3.50944 116.899 2.61711C116.875 2.47706 116.625 2.15294 116.151 1.64475V1.51871Z" fill="#B99F65"/>
<path d="M129.015 1.52471L130.046 1.51871V1.63875C129.686 2.0309 129.455 2.313 129.352 2.48506L127.303 6.44052C127.61 6.4005 128.021 6.41251 128.536 6.47653C129.371 5.50017 129.819 5.01199 129.88 5.01199V7.32885C129.483 7.32885 128.835 7.24882 127.935 7.08876C127.489 7.24882 126.841 7.32885 125.99 7.32885H125.242V7.2088C125.602 6.82066 125.833 6.54056 125.935 6.36849L126.604 4.99399C126.747 4.83793 126.913 4.71388 127.101 4.62185C127.076 4.56183 126.99 4.51981 126.843 4.4958L127.8 2.48506V2.37102H126.751C125.917 3.34738 125.469 3.83556 125.407 3.83556V1.51871C126.131 1.51871 126.868 1.55872 127.616 1.63875C128.099 1.57473 128.504 1.53672 128.831 1.52471V1.89085L129.015 1.52471Z" fill="#B99F65"/>
<path d="M130.962 1.51871H132.06C132.277 1.52671 132.385 1.55872 132.385 1.61474C132.623 1.58273 132.794 1.56673 132.901 1.56673C133.179 1.56673 133.502 1.59874 133.87 1.66276C133.899 1.56673 134.073 1.51871 134.392 1.51871H135.686C135.686 1.58273 135.707 1.61474 135.748 1.61474L135.686 1.71078V3.45742L135.748 3.78754L135.619 3.83556C134.948 2.78317 134.559 2.24698 134.453 2.22697H133.293V3.97961L133.422 3.9316H133.68L133.809 3.97961C133.85 3.88758 134.087 3.77554 134.52 3.64349H134.649V3.69151C134.649 3.9276 134.629 4.4798 134.588 5.34812C134.629 5.40814 134.649 5.45416 134.649 5.48617L133.741 4.68787H133.293V6.57257C133.322 6.57257 133.451 6.58857 133.68 6.62059C134.122 6.58857 134.379 6.55856 134.453 6.53055C134.453 6.55856 134.476 6.57257 134.52 6.57257C134.725 6.16442 134.942 5.96034 135.171 5.96034V5.91233C135.171 5.80829 135.148 5.73026 135.103 5.67824C135.275 5.13404 135.469 4.80392 135.686 4.68787C135.686 4.96798 135.707 5.10803 135.748 5.10803L135.686 5.20406V7.14278L135.748 7.23881L135.619 7.28083H134.324C134.283 7.28083 134.263 7.29684 134.263 7.32885L134.134 7.28083H133.293L132.968 7.23881V7.28083L132.839 7.23881C132.655 7.23881 132.03 7.26883 130.962 7.32885L130.895 7.23881C130.895 7.2068 131.154 7.01673 131.674 6.6686V5.34812C131.674 4.73589 131.737 4.1997 131.864 3.73953C131.737 3.4034 131.674 3.1213 131.674 2.89321V2.13694L130.962 1.61474V1.51871Z" fill="#B99F65"/>
<path d="M137.241 1.51871H140.296C140.296 1.55872 140.014 1.7628 139.449 2.13093V2.69514C139.364 2.69514 139.321 2.71115 139.321 2.74316C139.406 3.85157 139.449 4.53782 139.449 4.80192V6.44652C139.466 6.51055 139.511 6.54256 139.584 6.54256H140.296C140.407 6.50654 140.82 5.75427 141.535 4.28573H141.664V6.30847C141.611 6.62059 141.525 6.77664 141.407 6.77664L141.732 7.1968C141.646 7.22881 141.58 7.24482 141.535 7.24482C140.742 7.24482 140.177 7.26082 139.842 7.29283C139.2 7.26082 138.462 7.24482 137.627 7.24482H137.044V7.1968L137.891 6.58457V6.30847C137.891 6.09239 137.911 5.90432 137.952 5.74426C137.911 5.5802 137.891 5.39213 137.891 5.18006V5.13204C137.891 5.10003 137.869 5.08402 137.824 5.08402C137.869 5.04 137.911 4.83793 137.952 4.4778C137.911 3.76554 137.891 3.09329 137.891 2.46106V2.317C137.891 2.28499 137.869 2.26898 137.824 2.26898L137.891 2.17895C137.887 2.12293 137.691 1.98088 137.302 1.75279L137.106 1.56673L137.241 1.51871Z" fill="#B99F65"/>
<path d="M143.519 1.51871H144.587C146.018 1.51871 146.992 1.92286 147.507 2.73115C147.507 2.87521 147.663 3.23334 147.974 3.80555C148.019 4.12567 148.041 4.31174 148.041 4.36376C147.894 5.66824 147.54 6.32048 146.98 6.32048C146.632 6.72462 146.432 6.9267 146.378 6.9267C145.659 7.14678 144.971 7.25682 144.317 7.25682C143.851 7.22481 143.341 7.2088 142.789 7.2088H142.66V7.16078L143.39 6.60258V6.23044L143.452 5.67224L143.587 5.71425H143.654V5.67224C143.478 5.33211 143.39 5.11403 143.39 5.018V4.78391C143.39 3.95561 143.433 3.33338 143.519 2.91722C143.433 2.17295 143.235 1.80081 142.924 1.80081V1.70478C143.219 1.58073 143.417 1.51871 143.519 1.51871ZM144.851 2.26898L144.918 2.35902V6.46453H144.986C145.763 6.46453 146.25 5.90432 146.446 4.78391V4.2257C146.446 4.19369 146.468 4.17769 146.513 4.17769L146.446 4.08765V3.89558C146.29 2.83919 145.892 2.311 145.25 2.311L144.851 2.26898Z" fill="#B99F65"/>
<path d="M150.583 1.54272H151.909C152.252 2.80318 152.52 3.72552 152.712 4.30974L152.657 4.39977V4.4958C152.657 4.52782 152.675 4.54382 152.712 4.54382L152.657 4.63986V4.82593C152.657 4.94997 152.79 5.15205 153.056 5.43215C153.248 6.30847 153.401 6.74663 153.516 6.74663C153.937 7.03074 154.148 7.18679 154.148 7.2148C154.148 7.27883 154.111 7.31084 154.038 7.31084C153.616 7.27883 153.406 7.23281 153.406 7.17279C153.262 7.23281 153.109 7.26282 152.945 7.26282H152.136C152.05 7.26282 151.974 7.27883 151.909 7.31084C151.839 7.27883 151.761 7.26282 151.675 7.26282H151.332V7.17279C151.41 7.17279 151.581 7.03074 151.847 6.74663C151.847 6.61458 151.81 6.45853 151.737 6.27846C151.81 6.27846 151.847 6.24645 151.847 6.18243C151.733 6.18243 151.637 5.96434 151.559 5.52818H150.35C150.121 6.26446 150.007 6.68661 150.007 6.79465C150.056 6.79465 150.209 6.9207 150.467 7.17279V7.26282H149.89C149.735 7.26282 149.581 7.27883 149.43 7.31084C149.283 7.27883 149.129 7.26282 148.97 7.26282H148.399V7.17279C148.915 6.88468 149.24 6.44652 149.375 5.85831L150.528 2.14894V2.10092C150.221 1.89685 150.068 1.7568 150.068 1.68077C150.322 1.58873 150.493 1.54272 150.583 1.54272ZM150.988 3.46342C150.755 4.18769 150.639 4.62585 150.639 4.77791C150.794 4.77791 150.872 4.83993 150.872 4.96398L151.332 4.72989L151.043 3.46342H150.988Z" fill="#B99F65"/>
<path d="M158.962 3.98491C159.311 3.98491 159.568 3.74503 159.568 3.42908C159.568 3.10729 159.311 2.8674 158.962 2.8674C158.62 2.8674 158.363 3.10729 158.363 3.42908C158.363 3.74503 158.62 3.98491 158.962 3.98491ZM158.962 6.20823C159.311 6.20823 159.568 5.96249 159.568 5.64655C159.568 5.32475 159.311 5.08487 158.962 5.08487C158.62 5.08487 158.363 5.32475 158.363 5.64655C158.363 5.96249 158.62 6.20823 158.962 6.20823Z" fill="#B99F65"/>
<path d="M163.783 1.5007H163.838C164.455 1.5007 165.174 1.53376 165.996 1.59987L166.051 1.5007L166.173 1.55029H166.523C167.756 1.55029 168.512 1.95937 168.79 2.77753V3.07504C168.79 3.70313 168.422 4.12874 167.687 4.35187V4.39526C168.038 4.45311 168.328 4.58534 168.557 4.79195C168.52 4.85393 168.502 4.90351 168.502 4.9407L168.674 5.03368C168.686 4.97169 168.725 4.9407 168.79 4.9407C169.023 5.2878 169.139 5.61424 169.139 5.92002C168.984 6.67207 168.694 7.04809 168.269 7.04809C168.151 7.04809 168.034 7.1142 167.92 7.24643C167.197 7.37866 166.478 7.44478 165.763 7.44478H164.071C163.994 7.44478 163.955 7.41172 163.955 7.3456C163.955 7.30015 164.149 7.13693 164.537 6.85595V4.89112C164.537 4.75062 164.596 4.57088 164.715 4.35187L164.598 3.41595C164.676 3.28372 164.715 3.18455 164.715 3.11843C164.596 2.95728 164.537 2.82712 164.537 2.72795V2.08953L163.783 1.55029V1.5007ZM166.051 2.1887V4.05436H166.578C167.003 4.05436 167.256 3.79197 167.338 3.26719V2.8767C167.338 2.41804 166.909 2.1887 166.051 2.1887ZM166.051 4.69277V5.72168C166.051 5.78779 166.012 5.82085 165.934 5.82085C165.934 5.85804 165.955 5.90762 165.996 5.9696C165.955 6.19274 165.934 6.37249 165.934 6.50885C165.992 6.50885 166.051 6.59149 166.112 6.75677C167.121 6.75677 167.626 6.46133 167.626 5.87043V5.67209C167.626 5.01921 167.101 4.69277 166.051 4.69277Z" fill="#B99F65"/>
<path d="M169.957 1.5193H170.643C171.043 1.5193 171.464 1.53376 171.905 1.56268C172.106 1.53376 172.295 1.5193 172.475 1.5193C174.195 1.5193 175.055 2.0668 175.055 3.16182C175.055 3.38082 174.922 3.63701 174.657 3.9304C174.281 4.41386 173.899 4.65559 173.511 4.65559V4.70517C173.968 5.35805 174.197 5.79399 174.197 6.01299C174.504 6.451 174.886 6.82082 175.343 7.12247C175.343 7.18445 175.382 7.21544 175.46 7.21544V7.26503C175.46 7.3518 175.231 7.41585 174.773 7.45717C174.41 7.42825 174.064 7.41378 173.738 7.41378C172.761 5.90969 172.208 5.10392 172.077 4.99649L172.132 5.23822V6.78157C172.488 7.13693 172.718 7.31461 172.825 7.31461V7.41378H171.672C171.599 7.41378 171.562 7.3642 171.562 7.26503C171.362 7.3642 170.884 7.42825 170.128 7.45717C170.055 7.42825 169.997 7.41378 169.957 7.41378V7.3642L170.698 6.73198V4.02957L170.759 3.73825C170.719 3.68453 170.698 3.60396 170.698 3.49652V2.33746C170.698 2.16804 170.451 1.90978 169.957 1.56268V1.5193ZM172.077 2.28787L172.132 2.38704V4.02957L172.249 3.97998H172.475C173.239 3.97998 173.621 3.69073 173.621 3.11223C173.621 2.53374 173.164 2.24449 172.249 2.24449H172.193L172.077 2.28787Z" fill="#B99F65"/>
<path d="M176.044 1.5193H177.141C177.358 1.52756 177.466 1.56062 177.466 1.61847C177.703 1.58541 177.874 1.56888 177.981 1.56888C178.258 1.56888 178.581 1.60194 178.949 1.66805C178.977 1.56888 179.151 1.5193 179.47 1.5193H180.763C180.763 1.58541 180.783 1.61847 180.824 1.61847L180.763 1.71764V3.52132L180.824 3.86222L180.695 3.9118C180.025 2.82505 179.637 2.27134 179.531 2.25068H178.373V4.06056L178.501 4.01097H178.759L178.888 4.06056C178.928 3.96552 179.165 3.84982 179.598 3.71346H179.727V3.76304C179.727 4.00684 179.707 4.57707 179.666 5.47375C179.707 5.53573 179.727 5.58325 179.727 5.61631L178.82 4.79195H178.373V6.73818C178.401 6.73818 178.53 6.75471 178.759 6.78777C179.2 6.75471 179.457 6.72372 179.531 6.69479C179.531 6.72372 179.553 6.73818 179.598 6.73818C179.803 6.3167 180.019 6.10596 180.248 6.10596V6.05638C180.248 5.94894 180.225 5.86837 180.181 5.81465C180.352 5.25268 180.546 4.91178 180.763 4.79195C180.763 5.08119 180.783 5.22582 180.824 5.22582L180.763 5.32499V7.32701L180.824 7.42618L180.695 7.46957H179.402C179.361 7.46957 179.341 7.4861 179.341 7.51915L179.212 7.46957H178.373L178.048 7.42618V7.46957L177.919 7.42618C177.735 7.42618 177.11 7.45717 176.044 7.51915L175.977 7.42618C175.977 7.39312 176.236 7.19685 176.755 6.83735V5.47375C176.755 4.84153 176.818 4.28783 176.945 3.81263C176.818 3.46553 176.755 3.17422 176.755 2.93868V2.15771L176.044 1.61847V1.5193Z" fill="#B99F65"/>
<path d="M184.166 1.54409H185.49C185.833 2.84571 186.101 3.79817 186.293 4.40146L186.237 4.49443V4.5936C186.237 4.62666 186.256 4.64319 186.293 4.64319L186.237 4.74236V4.9345C186.237 5.0626 186.37 5.27127 186.636 5.56052C186.828 6.46546 186.981 6.91793 187.095 6.91793C187.516 7.21131 187.727 7.37246 187.727 7.40139C187.727 7.4675 187.69 7.50056 187.616 7.50056C187.195 7.4675 186.985 7.41998 186.985 7.358C186.842 7.41998 186.689 7.45097 186.525 7.45097H185.716C185.631 7.45097 185.555 7.4675 185.49 7.50056C185.42 7.4675 185.343 7.45097 185.257 7.45097H184.914V7.358C184.991 7.358 185.163 7.21131 185.428 6.91793C185.428 6.78157 185.392 6.62041 185.318 6.43447C185.392 6.43447 185.428 6.40141 185.428 6.3353C185.314 6.3353 185.218 6.1101 185.14 5.65969H183.933C183.704 6.42001 183.59 6.85595 183.59 6.96751C183.639 6.96751 183.792 7.09768 184.05 7.358V7.45097H183.474C183.318 7.45097 183.165 7.4675 183.014 7.50056C182.867 7.4675 182.714 7.45097 182.554 7.45097H181.984V7.358C182.499 7.06049 182.824 6.60802 182.959 6.00059L184.111 2.17011V2.12052C183.804 1.90978 183.651 1.76516 183.651 1.68665C183.905 1.59161 184.076 1.54409 184.166 1.54409ZM184.571 3.52751C184.338 4.27543 184.221 4.7279 184.221 4.88492C184.376 4.88492 184.454 4.94897 184.454 5.07706L184.914 4.83533L184.626 3.52751H184.571Z" fill="#B99F65"/>
<path d="M188.366 1.5193C188.583 1.5193 188.768 1.53582 188.924 1.56888C189.957 1.53582 190.781 1.5193 191.393 1.5193H192.754L193.06 1.81061C193.077 1.74863 193.119 1.71764 193.189 1.71764L193.25 1.81061V3.8994H193.121C192.917 3.51925 192.815 3.26099 192.815 3.12463V2.92629C192.611 2.92629 192.404 2.70109 192.196 2.25068H191.516V4.72377C191.516 4.90145 191.495 5.12871 191.455 5.40557C191.495 5.45929 191.516 5.52333 191.516 5.59771C191.475 6.03572 191.455 6.34356 191.455 6.52124C191.455 6.80223 191.743 7.07701 192.319 7.3456V7.44478H189.23V7.39519C189.724 7.10594 189.972 6.87867 189.972 6.71339C189.972 6.64314 189.992 6.57909 190.033 6.52124C189.992 6.16588 189.972 5.85804 189.972 5.59771V5.54813C189.972 5.01095 190.033 4.36427 190.155 3.60809C190.033 3.02546 189.972 2.57299 189.972 2.25068H189.353C189.206 2.37465 188.877 2.92422 188.366 3.8994H188.305V1.8602L188.366 1.5193Z" fill="#B99F65"/>
<path d="M194.643 1.5193H194.993C195.034 1.5193 195.054 1.53582 195.054 1.56888L195.171 1.5193H197.254L196.617 2.15771V2.30027C196.617 2.74241 196.578 3.1019 196.5 3.37876C196.578 3.48206 196.617 3.70933 196.617 4.06056L196.733 4.01097H197.891L198.008 4.06056V2.15771L197.371 1.5193H200.214C200.214 1.55235 199.963 1.76516 199.46 2.15771V2.69695C199.46 2.84984 199.401 2.96348 199.282 3.03786C199.401 3.31471 199.46 3.50892 199.46 3.62049V5.2816C199.46 5.34772 199.401 5.38077 199.282 5.38077C199.401 6.45513 199.517 6.99231 199.632 6.99231L200.036 7.28982C199.979 7.41792 199.922 7.48196 199.865 7.48196H198.124C197.985 7.48196 197.791 7.43445 197.542 7.33941V7.24023C197.62 7.24023 197.775 7.11007 198.008 6.84975V4.79814H196.617V5.2816C196.502 5.64936 196.445 5.92828 196.445 6.11836C196.56 6.36629 196.637 6.64314 196.678 6.94892C196.727 6.94892 196.919 7.11007 197.254 7.43238V7.48196H194.417V7.38899C194.919 7.1204 195.171 6.89107 195.171 6.70099V5.82085C195.171 5.78779 195.189 5.77126 195.226 5.77126C195.226 5.7382 195.207 5.72168 195.171 5.72168L195.342 4.89112C195.264 4.63492 195.226 4.44071 195.226 4.30849L195.281 3.96759C195.207 3.96759 195.171 3.93453 195.171 3.86841V2.30027C195.171 2.18457 194.995 1.99036 194.643 1.71764V1.5193Z" fill="#B99F65"/>
<path d="M206.383 1.5193H207.266C208.667 1.5193 209.496 2.34159 209.754 3.98618V4.606C209.754 5.61424 209.413 6.27125 208.73 6.57703C208.73 6.96545 208.193 7.2547 207.119 7.44478C205.485 7.44478 204.557 6.41587 204.337 4.35807C204.337 3.24653 204.923 2.38291 206.095 1.76722C206.124 1.60194 206.22 1.5193 206.383 1.5193ZM206.095 3.37256V5.21962C206.095 6.12456 206.485 6.57703 207.266 6.57703C207.752 6.57703 208.044 5.96134 208.142 4.72996V4.11014C208.142 2.87877 207.752 2.26308 206.972 2.26308C206.387 2.46969 206.095 2.83951 206.095 3.37256ZM206.972 3.74445H207.119C207.249 3.74445 207.493 3.94899 207.848 4.35807V4.48204C207.46 4.89525 207.266 5.18243 207.266 5.34359H207.119C206.963 5.34359 206.669 5.01508 206.236 4.35807L206.972 3.74445Z" fill="#B99F65"/>
<path d="M210.926 1.5193H211.674C212.524 1.5193 213.171 1.60401 213.617 1.77342C214.516 1.60401 215.163 1.5193 215.559 1.5193V3.918C215.498 3.918 215.051 3.41388 214.217 2.40564H213.169V4.16593C213.668 4.00064 213.917 3.87461 213.917 3.78784C214.317 3.91593 214.518 4.04196 214.518 4.16593V5.55432C214.003 5.13285 213.553 4.92211 213.169 4.92211V6.31051C213.169 6.61215 213.37 6.94685 213.77 7.31461L213.022 7.44478H210.926V7.31461L211.527 6.68859V5.04607C211.527 4.37253 211.576 3.57503 211.674 2.65357C211.65 2.50894 211.4 2.17424 210.926 1.64946V1.5193Z" fill="#B99F65"/>
<path d="M220.27 1.5193C220.487 1.5193 220.673 1.53582 220.828 1.56888C221.861 1.53582 222.685 1.5193 223.297 1.5193H224.658L224.964 1.81061C224.981 1.74863 225.024 1.71764 225.093 1.71764L225.154 1.81061V3.8994H225.026C224.821 3.51925 224.719 3.26099 224.719 3.12463V2.92629C224.515 2.92629 224.309 2.70109 224.1 2.25068H223.42V4.72377C223.42 4.90145 223.4 5.12871 223.359 5.40557C223.4 5.45929 223.42 5.52333 223.42 5.59771C223.379 6.03572 223.359 6.34356 223.359 6.52124C223.359 6.80223 223.647 7.07701 224.223 7.3456V7.44478H221.134V7.39519C221.629 7.10594 221.876 6.87867 221.876 6.71339C221.876 6.64314 221.896 6.57909 221.937 6.52124C221.896 6.16588 221.876 5.85804 221.876 5.59771V5.54813C221.876 5.01095 221.937 4.36427 222.06 3.60809C221.937 3.02546 221.876 2.57299 221.876 2.25068H221.257C221.11 2.37465 220.781 2.92422 220.27 3.8994H220.209V1.8602L220.27 1.5193Z" fill="#B99F65"/>
<path d="M226.548 1.5193H226.897C226.938 1.5193 226.958 1.53582 226.958 1.56888L227.075 1.5193H229.158L228.521 2.15771V2.30027C228.521 2.74241 228.482 3.1019 228.404 3.37876C228.482 3.48206 228.521 3.70933 228.521 4.06056L228.637 4.01097H229.796L229.912 4.06056V2.15771L229.275 1.5193H232.118C232.118 1.55235 231.867 1.76516 231.364 2.15771V2.69695C231.364 2.84984 231.305 2.96348 231.187 3.03786C231.305 3.31471 231.364 3.50892 231.364 3.62049V5.2816C231.364 5.34772 231.305 5.38077 231.187 5.38077C231.305 6.45513 231.422 6.99231 231.536 6.99231L231.94 7.28982C231.883 7.41792 231.826 7.48196 231.769 7.48196H230.028C229.89 7.48196 229.695 7.43445 229.446 7.33941V7.24023C229.524 7.24023 229.679 7.11007 229.912 6.84975V4.79814H228.521V5.2816C228.406 5.64936 228.349 5.92828 228.349 6.11836C228.464 6.36629 228.541 6.64314 228.582 6.94892C228.631 6.94892 228.823 7.11007 229.158 7.43238V7.48196H226.321V7.38899C226.823 7.1204 227.075 6.89107 227.075 6.70099V5.82085C227.075 5.78779 227.093 5.77126 227.13 5.77126C227.13 5.7382 227.111 5.72168 227.075 5.72168L227.246 4.89112C227.169 4.63492 227.13 4.44071 227.13 4.30849L227.185 3.96759C227.111 3.96759 227.075 3.93453 227.075 3.86841V2.30027C227.075 2.18457 226.899 1.99036 226.548 1.71764V1.5193Z" fill="#B99F65"/>
<path d="M232.776 1.5193H233.873C234.09 1.52756 234.198 1.56062 234.198 1.61847C234.435 1.58541 234.606 1.56888 234.713 1.56888C234.99 1.56888 235.313 1.60194 235.681 1.66805C235.709 1.56888 235.883 1.5193 236.202 1.5193H237.495C237.495 1.58541 237.515 1.61847 237.556 1.61847L237.495 1.71764V3.52132L237.556 3.86222L237.427 3.9118C236.757 2.82505 236.369 2.27134 236.263 2.25068H235.105V4.06056L235.233 4.01097H235.491L235.619 4.06056C235.66 3.96552 235.897 3.84982 236.33 3.71346H236.459V3.76304C236.459 4.00684 236.439 4.57707 236.398 5.47375C236.439 5.53573 236.459 5.58325 236.459 5.61631L235.552 4.79195H235.105V6.73818C235.133 6.73818 235.262 6.75471 235.491 6.78777C235.932 6.75471 236.189 6.72372 236.263 6.69479C236.263 6.72372 236.285 6.73818 236.33 6.73818C236.535 6.3167 236.751 6.10596 236.98 6.10596V6.05638C236.98 5.94894 236.957 5.86837 236.913 5.81465C237.084 5.25268 237.278 4.91178 237.495 4.79195C237.495 5.08119 237.515 5.22582 237.556 5.22582L237.495 5.32499V7.32701L237.556 7.42618L237.427 7.46957H236.134C236.093 7.46957 236.073 7.4861 236.073 7.51915L235.944 7.46957H235.105L234.78 7.42618V7.46957L234.651 7.42618C234.467 7.42618 233.842 7.45717 232.776 7.51915L232.709 7.42618C232.709 7.39312 232.968 7.19685 233.487 6.83735V5.47375C233.487 4.84153 233.55 4.28783 233.677 3.81263C233.55 3.46553 233.487 3.17422 233.487 2.93868V2.15771L232.776 1.61847V1.5193Z" fill="#B99F65"/>
<path d="M241.936 1.54409H244.522C244.481 1.635 244.34 1.78582 244.099 1.99656C244.34 2.56266 244.461 2.90149 244.461 3.01306L244.344 2.96348H244.283C244.495 3.40562 244.716 3.79404 244.945 4.12874C244.945 4.21138 244.984 4.3622 245.061 4.58121H245.123L246.023 1.94697C245.991 1.94697 245.872 1.82921 245.668 1.59367V1.54409H247.047V1.74243C247.047 1.91185 247.008 1.99656 246.93 1.99656C247.09 2.32713 247.169 2.56473 247.169 2.70935H247.047C247.28 2.89943 247.562 3.52338 247.892 4.58121H247.954C247.954 4.33328 248.234 3.6742 248.793 2.60398C248.834 2.60398 248.855 2.57092 248.855 2.50481H248.732C248.732 2.4387 248.773 2.26928 248.855 1.99656C248.855 1.95937 248.734 1.82507 248.493 1.59367V1.54409H250.233V1.59367C249.874 2.01102 249.514 2.71968 249.155 3.71966C249.094 3.71966 249.032 3.78784 248.971 3.9242C249.012 3.99031 249.032 4.04196 249.032 4.07915C249.032 4.17832 248.912 4.3808 248.671 4.68658C248.671 5.00888 248.33 5.97167 247.647 7.57494H247.592C247.269 6.74851 247.049 6.05638 246.93 5.49854C246.796 5.49854 246.575 5.02541 246.269 4.07915H246.207C245.942 4.88905 245.701 5.39524 245.484 5.59771L245.423 5.69688L245.484 5.95101C245.415 6.16588 245.235 6.46959 244.945 6.86214L245.006 7.11627C244.924 7.42205 244.843 7.57494 244.761 7.57494L243.198 3.52132C243.239 3.4552 243.26 3.40355 243.26 3.36636L243.076 3.26719L243.26 3.01306C243.1 2.84364 243.021 2.70728 243.021 2.60398H242.959L242.837 2.65977C242.837 2.30027 242.536 1.96143 241.936 1.64326V1.54409Z" fill="#B99F65"/>
<path d="M251.296 1.54409H254.182L253.435 2.17631V4.32088C253.357 4.55228 253.318 4.68038 253.318 4.70517V4.90351C253.318 5.04401 253.357 5.17417 253.435 5.294C253.435 5.36425 253.414 5.54193 253.373 5.82705C253.414 6.31464 253.435 6.67207 253.435 6.89933C253.782 7.06049 253.955 7.23817 253.955 7.43238L253.839 7.48196H251.296V7.43238L252.043 6.80016V5.14524C252.043 5.11219 252.025 5.09566 251.988 5.09566L252.043 5.00268V2.46762C252.043 2.21143 251.813 1.93458 251.351 1.63706L251.296 1.54409Z" fill="#B99F65"/>
<path d="M255.373 1.5193H258.425C258.425 1.56062 258.143 1.77136 257.579 2.15151V2.73414C257.494 2.73414 257.451 2.75067 257.451 2.78373C257.536 3.92833 257.579 4.63699 257.579 4.90971V6.60802C257.596 6.67413 257.641 6.70719 257.714 6.70719H258.425C258.535 6.67 258.948 5.89316 259.663 4.37667H259.792V6.46546C259.739 6.78777 259.653 6.94892 259.534 6.94892L259.859 7.38279C259.773 7.41585 259.708 7.43238 259.663 7.43238C258.87 7.43238 258.307 7.44891 257.972 7.48196C257.33 7.44891 256.593 7.43238 255.759 7.43238H255.177V7.38279L256.023 6.75058V6.46546C256.023 6.24233 256.043 6.04811 256.084 5.88283C256.043 5.71341 256.023 5.5192 256.023 5.3002V5.25061C256.023 5.21756 256 5.20103 255.955 5.20103C256 5.15557 256.043 4.9469 256.084 4.57501C256.043 3.83949 256.023 3.14529 256.023 2.49241V2.34366C256.023 2.3106 256 2.29407 255.955 2.29407L256.023 2.2011C256.019 2.14325 255.823 1.99656 255.435 1.76103L255.238 1.56888L255.373 1.5193Z" fill="#B99F65"/>
<path d="M261.645 1.5193H262.711C264.141 1.5193 265.113 1.93664 265.628 2.77133C265.628 2.92009 265.783 3.28992 266.094 3.88081C266.139 4.21138 266.161 4.40353 266.161 4.45724C266.014 5.80432 265.661 6.47786 265.101 6.47786C264.754 6.8952 264.553 7.10387 264.5 7.10387C263.781 7.33114 263.095 7.44478 262.441 7.44478C261.975 7.41172 261.467 7.39519 260.915 7.39519H260.787V7.3456L261.516 6.76917V6.38488L261.577 5.80845L261.712 5.85184H261.779V5.80845C261.604 5.45722 261.516 5.23202 261.516 5.13285V4.89112C261.516 4.03577 261.559 3.39322 261.645 2.96348C261.559 2.1949 261.361 1.81061 261.05 1.81061V1.71144C261.344 1.58334 261.542 1.5193 261.645 1.5193ZM262.974 2.29407L263.042 2.38704V6.62661H263.109C263.885 6.62661 264.372 6.04811 264.568 4.89112V4.31468C264.568 4.28163 264.59 4.2651 264.635 4.2651L264.568 4.17213V3.97378C264.412 2.8829 264.014 2.33746 263.373 2.33746L262.974 2.29407Z" fill="#B99F65"/>
<path d="M56.1368 12.8712H63.9147C65.9312 20.5169 67.5035 26.1116 68.6318 29.6553L68.3077 30.2015V30.784C68.3077 30.9782 68.4157 31.0753 68.6318 31.0753L68.3077 31.6578V32.7864C68.3077 33.5389 69.0879 34.7646 70.6483 36.4636C71.7765 41.7792 72.6768 44.437 73.3489 44.437C75.8215 46.1603 77.0578 47.1069 77.0578 47.2768C77.0578 47.6652 76.8418 47.8594 76.4097 47.8594C73.9371 47.6652 72.7008 47.3861 72.7008 47.022C71.8606 47.3861 70.9604 47.5681 70.0001 47.5681H65.247C64.7429 47.5681 64.2988 47.6652 63.9147 47.8594C63.5066 47.6652 63.0505 47.5681 62.5463 47.5681H60.5299V47.022C60.986 47.022 61.9942 46.1603 63.5546 44.437C63.5546 43.636 63.3385 42.6894 62.9064 41.5972C63.3385 41.5972 63.5546 41.403 63.5546 41.0146C62.8824 41.0146 62.3183 39.6918 61.8622 37.0462H54.7685C53.4242 41.5122 52.752 44.0729 52.752 44.7283C53.0401 44.7283 53.9403 45.4928 55.4526 47.022V47.5681H52.0678C51.1556 47.5681 50.2554 47.6652 49.3672 47.8594C48.503 47.6652 47.6028 47.5681 46.6665 47.5681H43.3177V47.022C46.3425 45.2744 48.2509 42.6166 49.0431 39.0486L55.8127 16.5484V16.2572C54.0123 15.0193 53.1121 14.1698 53.1121 13.7086C54.6004 13.1504 55.6087 12.8712 56.1368 12.8712ZM58.5134 24.5218C57.1451 28.915 56.4609 31.5728 56.4609 32.4952C57.3731 32.4952 57.8292 32.8714 57.8292 33.6238L60.5299 32.2039L58.8375 24.5218H58.5134Z" fill="#E05418"/>
<path d="M90.0209 22.9927C91.2692 18.7208 91.8934 16.2572 91.8934 15.6018C91.6053 15.6018 90.6931 14.8373 89.1567 13.3081V12.7256H92.6135C93.5498 12.7256 94.45 12.6285 95.3142 12.4343C96.2024 12.6285 97.1146 12.7256 98.0508 12.7256H101.472V13.3081C98.4229 15.08 96.4905 17.762 95.6743 21.3543L88.8326 44.1093V44.4006C90.6571 45.6627 91.5693 46.5244 91.5693 46.9856C90.0569 47.5681 89.0367 47.8594 88.5085 47.8594H80.6227C78.5822 40.0923 76.9858 34.4248 75.8335 30.8568L76.1936 30.3107V29.6917C76.1936 29.5218 76.0736 29.4369 75.8335 29.4369L76.1936 28.8544V27.6893C76.1936 26.9126 75.4014 25.6747 73.817 23.9757C72.6648 18.5873 71.7525 15.8931 71.0804 15.8931C68.5598 14.1455 67.2995 13.1868 67.2995 13.0169C67.2995 12.6285 67.5275 12.4343 67.9836 12.4343C70.4802 12.6285 71.7285 12.9198 71.7285 13.3081C72.5687 12.9198 73.481 12.7256 74.4652 12.7256H79.2543C79.7825 12.7256 80.2386 12.6285 80.6227 12.4343C81.0308 12.6285 81.4869 12.7256 81.991 12.7256H84.0435V13.3081C83.5874 13.3081 82.5671 14.1698 80.9827 15.8931C80.9827 16.6941 81.2108 17.6528 81.6669 18.7693C81.2108 18.7693 80.9827 18.9635 80.9827 19.3519C81.6549 19.3519 82.231 20.6868 82.7112 23.3567L84.0435 28.2718L85.7719 36.0632H86.096C87.4643 31.6214 88.7726 27.2645 90.0209 22.9927Z" fill="#E05418"/>
<path d="M99.6352 12.7256H106.081C107.353 12.7741 107.989 12.9683 107.989 13.3081C109.382 13.1139 110.39 13.0169 111.014 13.0169C112.646 13.0169 114.543 13.211 116.703 13.5994C116.871 13.0169 117.892 12.7256 119.764 12.7256H127.362C127.362 13.1139 127.482 13.3081 127.722 13.3081L127.362 13.8906V24.4854L127.722 26.4878L126.966 26.7791C123.029 20.3956 120.748 17.1431 120.124 17.0217H113.318V27.6529L114.075 27.3616H115.587L116.343 27.6529C116.583 27.0946 117.976 26.415 120.52 25.614H121.276V25.9053C121.276 27.3374 121.156 30.6869 120.916 35.9539C121.156 36.318 121.276 36.5971 121.276 36.7913L115.947 31.949H113.318V43.3812C113.487 43.3812 114.243 43.4783 115.587 43.6724C118.18 43.4783 119.692 43.2962 120.124 43.1263C120.124 43.2962 120.256 43.3812 120.52 43.3812C121.72 40.9054 122.993 39.6676 124.337 39.6676V39.3763C124.337 38.7452 124.205 38.2719 123.941 37.9564C124.949 34.6554 126.09 32.6529 127.362 31.949C127.362 33.6481 127.482 34.4976 127.722 34.4976L127.362 35.0801V46.8399L127.722 47.4225L126.966 47.6773H119.368C119.128 47.6773 119.008 47.7744 119.008 47.9686L118.252 47.6773H113.318L111.41 47.4225V47.6773L110.654 47.4225C109.574 47.4225 105.901 47.6045 99.6352 47.9686L99.2391 47.4225C99.2391 47.2283 100.763 46.0754 103.812 43.9637V35.9539C103.812 32.2403 104.184 28.9879 104.928 26.1966C104.184 24.1577 103.812 22.4465 103.812 21.063V16.4756L99.6352 13.3081V12.7256Z" fill="#E05418"/>
<path d="M134.6 12.4343H140.865C149.267 12.4343 154.98 14.8858 158.005 19.7888C158.005 20.6626 158.917 22.8349 160.742 26.3058C161.006 28.2476 161.138 29.3762 161.138 29.6918C160.274 37.6045 158.197 41.5608 154.908 41.5608C152.868 44.0123 151.692 45.238 151.38 45.238C147.155 46.573 143.122 47.2405 139.281 47.2405C136.544 47.0463 133.555 46.9492 130.315 46.9492H129.558V46.6579L133.843 43.272V41.0147L134.203 37.6287L134.996 37.8836H135.392V37.6287C134.36 35.5656 133.843 34.2428 133.843 33.6602V32.2403C133.843 27.216 134.095 23.4417 134.6 20.9174C134.095 16.4028 132.931 14.1455 131.107 14.1455V13.563C132.835 12.8105 133.999 12.4343 134.6 12.4343ZM142.413 16.9853L142.81 17.5315V42.4346H143.206C147.767 42.4346 150.623 39.0365 151.776 32.2403V28.8544C151.776 28.6602 151.908 28.5631 152.172 28.5631L151.776 28.017V26.8519C150.863 20.4441 148.523 17.2402 144.754 17.2402L142.413 16.9853Z" fill="#441919"/>
<path d="M160.382 12.58H177.342L172.949 16.2936V28.8908C172.493 30.25 172.265 31.0025 172.265 31.1481V32.3131C172.265 33.1384 172.493 33.903 172.949 34.6069C172.949 35.0195 172.829 36.0632 172.589 37.7379C172.829 40.6021 172.949 42.7016 172.949 44.0365C174.989 44.9832 176.01 46.0269 176.01 47.1676L175.325 47.4589H160.382V47.1676L164.775 43.454V33.7331C164.775 33.5389 164.667 33.4418 164.451 33.4418L164.775 32.8957V18.0048C164.775 16.4999 163.418 14.8737 160.706 13.1261L160.382 12.58Z" fill="#441919"/>
<path d="M179.106 12.4343C180.379 12.4343 181.471 12.5314 182.383 12.7256C188.456 12.5314 193.294 12.4343 196.895 12.4343H204.888L206.689 14.1455C206.785 13.7814 207.037 13.5994 207.445 13.5994L207.805 14.1455V26.415H207.049C205.849 24.182 205.249 22.665 205.249 21.864V20.699C204.048 20.699 202.836 19.3761 201.612 16.7305H197.615V31.2573C197.615 32.301 197.495 33.636 197.255 35.2622C197.495 35.5777 197.615 35.954 197.615 36.3909C197.375 38.9637 197.255 40.772 197.255 41.8157C197.255 43.4662 198.947 45.0802 202.332 46.6579V47.2405H184.183V46.9492C187.088 45.2502 188.541 43.9152 188.541 42.9443C188.541 42.5317 188.661 42.1555 188.901 41.8157C188.661 39.7283 188.541 37.92 188.541 36.3909V36.0996C188.541 32.9442 188.901 29.1456 189.621 24.7039C188.901 21.2815 188.541 18.6237 188.541 16.7305H184.904C184.039 17.4586 182.107 20.6868 179.106 26.415H178.746V14.4368L179.106 12.4343Z" fill="#441919"/>
<path d="M209.426 12.4343H215.871C217.143 12.4829 217.78 12.677 217.78 13.0169C219.172 12.8227 220.18 12.7256 220.804 12.7256C222.437 12.7256 224.333 12.9198 226.494 13.3081C226.662 12.7256 227.682 12.4343 229.554 12.4343H237.152C237.152 12.8227 237.272 13.0169 237.512 13.0169L237.152 13.5994V24.1941L237.512 26.1966L236.756 26.4878C232.819 20.1043 230.539 16.8518 229.914 16.7305H223.109V27.3616L223.865 27.0704H225.377L226.134 27.3616C226.374 26.8034 227.766 26.1238 230.311 25.3228H231.067V25.6141C231.067 27.0461 230.947 30.3957 230.707 35.6627C230.947 36.0268 231.067 36.3059 231.067 36.5001L225.737 31.6578H223.109V43.0899C223.277 43.0899 224.033 43.187 225.377 43.3812C227.97 43.187 229.482 43.005 229.914 42.8351C229.914 43.005 230.046 43.0899 230.311 43.0899C231.511 40.6142 232.783 39.3763 234.127 39.3763V39.085C234.127 38.454 233.995 37.9807 233.731 37.6651C234.74 34.3641 235.88 32.3617 237.152 31.6578C237.152 33.3568 237.272 34.2064 237.512 34.2064L237.152 34.7889V46.5487L237.512 47.1312L236.756 47.3861H229.158C228.918 47.3861 228.798 47.4832 228.798 47.6774L228.042 47.3861H223.109L221.2 47.1312V47.3861L220.444 47.1312C219.364 47.1312 215.691 47.3133 209.426 47.6774L209.029 47.1312C209.029 46.9371 210.554 45.7841 213.603 43.6725V35.6627C213.603 31.9491 213.975 28.6966 214.719 25.9053C213.975 23.8665 213.603 22.1553 213.603 20.7718V16.1844L209.426 13.0169V12.4343Z" fill="#441919"/>
<path d="M238.665 12.4343H242.697C245.05 12.4343 247.523 12.5193 250.115 12.6892C251.292 12.5193 252.408 12.4343 253.464 12.4343C263.571 12.4343 268.624 15.6504 268.624 22.0825C268.624 23.3689 267.844 24.8738 266.283 26.5971C264.075 29.4369 261.83 30.8568 259.55 30.8568V31.1481C262.238 34.9831 263.583 37.5438 263.583 38.8302C265.383 41.403 267.627 43.5754 270.316 45.3472C270.316 45.7113 270.544 45.8934 271 45.8934V46.1846C271 46.6943 269.656 47.0706 266.967 47.3133C264.831 47.1434 262.802 47.0584 260.882 47.0584C255.144 38.2234 251.892 33.4903 251.124 32.8593L251.448 34.2792V43.3448C253.536 45.4322 254.892 46.4759 255.517 46.4759V47.0584H248.747C248.315 47.0584 248.099 46.7672 248.099 46.1846C246.923 46.7672 244.114 47.1434 239.673 47.3133C239.241 47.1434 238.905 47.0584 238.665 47.0584V46.7672L243.022 43.0535V27.1796L243.382 25.4684C243.142 25.1529 243.022 24.6796 243.022 24.0485V17.2402C243.022 16.245 241.569 14.728 238.665 12.6892V12.4343ZM251.124 16.9489L251.448 17.5315V27.1796L252.132 26.8883H253.464C257.953 26.8883 260.198 25.1893 260.198 21.7912C260.198 18.3931 257.509 16.6941 252.132 16.6941H251.808L251.124 16.9489Z" fill="#441919"/>
<path d="M55.0764 61.8439V61.0213H53.5899V61.8439H51.8929C52.3402 61.4857 52.748 61.1009 53.0637 60.6896H55.642C55.9577 61.1009 56.3655 61.4857 56.7997 61.8439H55.0764ZM53.2215 58.7922H55.4447V59.3893H53.2215V58.7922ZM53.2215 57.1204H55.4447V57.7042H53.2215V57.1204ZM50.0907 56.0058V55.1434H58.4703V56.0058H56.9444V55.4087H55.4447V56.0058H53.2215V55.4087H51.735V56.0058H50.0907ZM60.1278 60.6896V59.3893H56.9444V58.7922H58.7203V57.7042H56.9444V57.1204H58.7992V56.3641H60.0621V53.8165H55.4316C55.2605 53.4848 55.0501 53.1531 54.879 52.8612L53.1821 53.1664C53.2873 53.3654 53.3925 53.5909 53.5109 53.8165H48.5647V56.3641H49.8144V57.1204H51.735V57.7042H49.9591V58.7922H51.735V59.3893H48.5253V60.6896H51.1825C50.3801 61.3132 49.2488 61.8572 48.1569 62.1624C48.4726 62.4543 48.9331 63.0116 49.1435 63.3698C49.8934 63.1177 50.6563 62.7329 51.3272 62.2685V63.0248H53.5899V63.874H49.2882V65.1478H59.3912V63.874H55.0764V63.0248H57.4179V62.2951C58.0625 62.7329 58.7729 63.0912 59.4832 63.33C59.7069 62.9452 60.1673 62.3747 60.4962 62.0695C59.4043 61.7909 58.2993 61.2867 57.51 60.6896H60.1278Z" fill="#B99F65"/>
<path d="M64.903 58.7391C64.3637 60.1721 63.4165 61.6184 62.3642 62.4808C62.7588 62.7197 63.4692 63.2239 63.8112 63.5158C64.8373 62.4808 65.9028 60.8488 66.5605 59.1902L64.903 58.7391ZM72.2171 56.7754C71.9672 57.3327 71.6778 57.8767 71.4147 58.288L72.7959 58.8453C73.4011 58.0226 74.0457 56.7356 74.4798 55.5547L73.2432 55.1434L72.967 55.2097H66.3106C66.6 54.6392 66.8631 54.0553 67.0867 53.4715L65.3635 53.0204C64.6794 54.9576 63.4692 56.9081 62.1405 58.089C62.5615 58.3145 63.3113 58.8453 63.6533 59.1504C64.2585 58.5135 64.8636 57.6909 65.4424 56.7754H67.7313V63.5025C67.7313 63.7148 67.6392 63.7811 67.3893 63.7811C67.1262 63.7811 66.2317 63.7811 65.4292 63.7413C65.6529 64.2057 65.9028 64.9222 65.9817 65.4132C67.1394 65.4132 67.9944 65.3601 68.5864 65.108C69.1521 64.8691 69.3362 64.418 69.3362 63.529V56.7754H72.2171ZM70.4281 59.4291C71.3358 60.7161 72.3881 62.441 72.8223 63.529L74.3877 62.7595C73.9141 61.6582 72.7959 59.9996 71.8883 58.7789L70.4281 59.4291Z" fill="#B99F65"/>
<path d="M88.3976 61.9766C87.5951 60.809 86.0034 59.1372 84.5564 57.8501C84.609 57.5715 84.6485 57.3061 84.6879 57.0142H88.266V55.4883H84.8326C84.8721 54.7188 84.8984 53.9094 84.9116 53.0735H83.2804C83.2672 53.9227 83.254 54.732 83.2146 55.4883H80.2153V57.0142H83.083C82.7936 59.0974 82.057 60.7161 79.939 61.7511C80.2942 62.043 80.7678 62.64 80.9651 63.0248C82.6358 62.1624 83.5829 60.9549 84.1223 59.4689C85.3062 60.663 86.477 62.0297 87.0821 62.985L88.3976 61.9766ZM79.6759 55.7935C79.3865 55.0637 78.6762 54.0155 78.0316 53.246L76.6898 53.9227C77.3081 54.7453 77.979 55.8599 78.2289 56.5763L79.6759 55.7935ZM79.5444 57.8369H76.4135V59.3495H77.9658V62.441C77.4001 62.7064 76.7819 63.184 76.1899 63.8342L77.2817 65.3999C77.7422 64.6038 78.321 63.7148 78.7025 63.7148C78.9919 63.7148 79.4523 64.1394 80.0574 64.4711C81.0309 65.0151 82.1359 65.1743 83.8197 65.1743C85.1483 65.1743 87.3189 65.0947 88.2134 65.0284C88.2397 64.564 88.4897 63.7679 88.6738 63.3167C87.3715 63.529 85.2536 63.6484 83.8723 63.6484C82.4121 63.6484 81.2019 63.5556 80.2942 63.0381C79.9916 62.8789 79.7549 62.7064 79.5444 62.5737V57.8369Z" fill="#B99F65"/>
<path d="M93.1465 53.0867C92.4887 54.9841 91.3443 56.855 90.1603 58.0491C90.4234 58.4339 90.8575 59.2964 91.0022 59.6944C91.2785 59.3893 91.5547 59.0576 91.831 58.7126V65.4132H93.3438V56.3641C93.8437 55.4485 94.2778 54.4932 94.633 53.5644L93.1465 53.0867ZM102.618 58.3676V56.9081H97.8691L98.1322 55.8731H101.934V54.4401H98.4874L98.7505 53.3786L97.1982 53.1796C97.1061 53.5909 97.014 54.0023 96.9088 54.4401H94.5935V55.8731H96.5667C96.4747 56.2181 96.3826 56.5631 96.2905 56.9081H93.8437V58.3676H95.8695C95.5933 59.3362 95.3039 60.2252 95.0671 60.9549H99.5003C99.0662 61.4326 98.5794 61.9368 98.0927 62.441C97.7244 62.2022 97.3429 61.9766 96.9745 61.7776L95.8827 62.7329C97.185 63.5158 98.7504 64.6967 99.5003 65.4662L100.605 64.2721C100.29 63.9802 99.8423 63.6219 99.3293 63.2637C100.355 62.2022 101.421 61.0611 102.25 60.119L101.158 59.4025L100.921 59.4821H97.1587C97.264 59.1239 97.3692 58.7524 97.4744 58.3676H102.618Z" fill="#B99F65"/>
<path d="M108.353 55.3689C107.906 54.7718 106.933 53.8563 106.222 53.2327L105.183 54.1748C105.88 54.8647 106.814 55.8333 107.222 56.4437L108.353 55.3689ZM107.762 61.8837V57.1071H104.552V58.6462H106.17V62.3747C106.17 62.9983 105.63 63.5423 105.288 63.7546C105.578 64.0996 106.012 64.8161 106.157 65.2274C106.407 64.8824 106.893 64.4844 109.577 62.3747C109.406 62.043 109.143 61.3795 109.024 60.9019L107.762 61.8837ZM114.194 58.7922H110.485V57.054H114.194V58.7922ZM114.628 63.7944C114.431 63.7944 114.405 63.7546 114.405 63.3433V60.1854H115.773V55.6608H114.536C114.865 55.0239 115.22 54.2809 115.562 53.5644L113.892 53.0735C113.655 53.8696 113.247 54.9178 112.879 55.6608H111.129L111.997 55.2893C111.787 54.6657 111.248 53.7369 110.748 53.0735L109.419 53.6307C109.827 54.2544 110.261 55.0505 110.471 55.6608H108.985V60.1854H110.406C110.274 62.0032 109.932 63.3831 107.867 64.2057C108.209 64.4844 108.603 65.0416 108.774 65.4132C111.274 64.3517 111.8 62.5604 111.984 60.1854H112.866V63.3698C112.866 64.7763 113.116 65.2672 114.339 65.2672H115.273C116.233 65.2672 116.615 64.7365 116.759 62.8789C116.352 62.7727 115.707 62.5074 115.404 62.2553C115.378 63.6086 115.312 63.7944 115.102 63.7944H114.628Z" fill="#B99F65"/>
<path d="M124.456 57.9098C125.153 57.9098 125.666 57.3658 125.666 56.6493C125.666 55.9196 125.153 55.3755 124.456 55.3755C123.772 55.3755 123.259 55.9196 123.259 56.6493C123.259 57.3658 123.772 57.9098 124.456 57.9098ZM124.456 62.9518C125.153 62.9518 125.666 62.3946 125.666 61.6781C125.666 60.9483 125.153 60.4043 124.456 60.4043C123.772 60.4043 123.259 60.9483 123.259 61.6781C123.259 62.3946 123.772 62.9518 124.456 62.9518Z" fill="#B99F65"/>
<path d="M134.678 55.4021V57.7373H133.612V55.4021H134.678ZM133.612 61.5719V59.1305H134.678V61.5719H133.612ZM136.138 63.0049V53.9558H132.165V64.0133H133.612V63.0049H136.138ZM143.807 54.9112H141.584C141.4 54.3671 141.032 53.5843 140.677 52.9872L139.308 53.5312C139.519 53.9558 139.756 54.4468 139.94 54.9112H136.927V58.6529C136.927 60.4839 136.822 62.912 135.507 64.5839C135.888 64.7564 136.585 65.234 136.862 65.4994C138.269 63.6683 138.493 60.736 138.493 58.6661V56.4238H143.807V54.9112Z" fill="#B99F65"/>
<path d="M147.438 57.0076H148.425V58.0027H147.438V57.0076ZM147.438 54.8581H148.425V55.8399H147.438V54.8581ZM150.674 55.8399H149.727V54.8581H150.674V55.8399ZM150.674 58.0027H149.727V57.0076H150.674V58.0027ZM149.832 61.7444H152.016V60.3247H149.832V59.2499H152.003V53.5976H146.162V59.2499H148.319V60.3247H146.188V61.7444H148.319V63.204C147.346 63.3101 146.465 63.3764 145.754 63.4428L145.938 64.9819C147.649 64.7696 150.03 64.4777 152.266 64.1593L152.226 62.7794C151.424 62.8722 150.622 62.9651 149.832 63.0447V61.7444ZM157.12 57.8966L156.896 57.9364H156.594L156.936 57.5516C156.646 57.3127 156.265 57.0606 155.87 56.782C156.66 56.039 157.423 55.0969 157.949 54.2345L156.962 53.518L156.62 53.5976H152.424V55.0173H155.581C155.318 55.3888 155.002 55.7603 154.713 56.0788C154.331 55.8665 153.95 55.6807 153.595 55.5215L152.634 56.4901C153.424 56.8749 154.318 57.4056 155.042 57.9364H152.279V59.4357H154.016V63.6285C154.016 63.801 153.95 63.8408 153.752 63.8408C153.568 63.8541 152.897 63.8541 152.305 63.8143C152.503 64.2522 152.713 64.9156 152.766 65.3667C153.713 65.3667 154.423 65.3534 154.923 65.1013C155.436 64.8625 155.581 64.4247 155.581 63.6683V59.4357H156.436C156.304 60.0991 156.16 60.7493 156.028 61.2137L157.291 61.479C157.594 60.6299 157.936 59.303 158.172 58.1221L157.12 57.8966Z" fill="#B99F65"/>
<path d="M170.064 55.3623L169.762 55.4419H166.67L167.473 54.9775C167.17 54.407 166.486 53.4914 166 52.828L164.592 53.5843C164.973 54.1416 165.46 54.8713 165.776 55.4419H160.646V56.9943H168.578C167.17 58.7988 164.921 60.8422 162.763 62.1425H162.685C161.961 62.1425 160.922 62.8457 159.975 63.8674L161.106 65.3534C161.645 64.5043 162.237 63.6153 162.645 63.6153C162.934 63.6153 163.369 64.0664 163.934 64.3981C164.829 64.9554 165.881 65.1279 167.499 65.1279C168.788 65.1279 170.775 65.0483 171.709 64.9819C171.735 64.5573 171.998 63.7347 172.156 63.2968C170.906 63.4826 168.894 63.6153 167.552 63.6153C166.171 63.6153 165.066 63.5224 164.25 63.0182C166.894 61.2668 169.617 58.6529 171.275 56.1717L170.064 55.3623Z" fill="#B99F65"/>
<path d="M177.405 58.8386H182.601V59.4622H177.405V58.8386ZM177.405 57.1005H182.601V57.7108H177.405V57.1005ZM177.405 55.3623H182.601V55.9726H177.405V55.3623ZM178.931 61.0677C179.536 61.6913 180.233 62.5803 180.496 63.1641L181.785 62.4078C181.509 61.8904 180.957 61.2004 180.404 60.6564H184.193V54.1548H180.588C180.759 53.8364 180.97 53.4914 181.154 53.0934L179.26 52.8545C179.194 53.2393 179.049 53.717 178.918 54.1548H175.892V60.6564H179.667L178.931 61.0677ZM175.366 64.7431C175.787 63.9603 176.234 62.7528 176.563 61.8373L175.168 61.2535C174.879 62.169 174.379 63.2836 173.919 64.0399L175.366 64.7431ZM179.286 63.7214C178.536 63.7214 178.405 63.6816 178.405 63.2836V61.4658H176.813V63.2968C176.813 64.7166 177.3 65.1544 179.141 65.1544H181.641C183.114 65.1544 183.574 64.7033 183.759 62.8457C183.338 62.7661 182.667 62.5405 182.338 62.2884C182.259 63.5489 182.154 63.7214 181.522 63.7214H179.286ZM183.232 61.5852C183.811 62.5007 184.39 63.7082 184.574 64.4777L186.074 63.8408C185.85 63.0315 185.219 61.8771 184.614 61.0014L183.232 61.5852Z" fill="#B99F65"/>
<path d="M209.293 56.4105V54.5662H203.057C203.215 54.1416 203.347 53.7303 203.478 53.3057L201.492 52.828C201.347 53.3985 201.176 53.9824 200.952 54.5662H197.44V56.4105H200.11C199.321 57.87 198.256 59.1703 196.914 60.0195C197.203 60.4972 197.611 61.3596 197.808 61.8904C198.177 61.6515 198.519 61.3862 198.848 61.1075V65.4331H200.781V58.9846C201.36 58.1885 201.86 57.3127 202.294 56.4105H209.293ZM209.45 60.4706H206.556V60.1124C207.385 59.4888 208.188 58.7457 208.832 58.0691L207.635 57.0739L207.24 57.1801H202.426V58.905H205.543C205.241 59.1836 204.925 59.449 204.623 59.648V60.4706H201.452V62.2619H204.623V63.4428C204.623 63.602 204.557 63.6418 204.346 63.6551C204.149 63.6551 203.36 63.6551 202.833 63.6153C203.057 64.146 203.281 64.9156 203.347 65.4596C204.359 65.4729 205.162 65.4463 205.78 65.181C206.412 64.9023 206.556 64.4114 206.556 63.4959V62.2619H209.45V60.4706Z" fill="#E05418"/>
<path d="M221.684 53.717C221.461 54.7121 221.013 56.0257 220.606 56.8749L222.118 57.3127C222.539 56.5299 223.039 55.3225 223.5 54.1681L221.684 53.717ZM218.461 56.6095C218.225 55.7869 217.764 54.5662 217.343 53.6108L215.804 54.1681C216.199 55.1367 216.659 56.437 216.843 57.2597L218.461 56.6095ZM220.474 52.8943H218.646V57.7639H215.988V59.4622C215.581 58.8652 215.015 58.0558 214.739 57.7108V57.2995H216.133V55.5215H214.739V52.8413H212.936V55.5215H211.384V57.2995H212.66C212.344 58.759 211.726 60.4176 211.016 61.4392C211.292 61.9169 211.7 62.6998 211.871 63.2438C212.279 62.6467 212.634 61.8108 212.936 60.8952V65.4463H214.739V60.1655C214.989 60.6697 215.212 61.1606 215.357 61.5454L216.396 60.0726C216.344 59.9797 216.225 59.8072 216.08 59.5949H221.316V60.4043H216.199V62.1159H221.316V62.9784H215.686V64.8227H221.316V65.234H223.197V57.7639H220.474V52.8943Z" fill="#E05418"/>
<path d="M227.565 52.8678C227.025 54.7519 226.091 56.6361 225.078 57.8435C225.368 58.361 225.828 59.4888 225.973 59.9664C226.144 59.7674 226.315 59.5551 226.473 59.3296V65.4331H228.288V56.092C228.696 55.2031 229.038 54.2743 229.327 53.3985L227.565 52.8678ZM234.892 55.6409C234.616 55.9859 234.3 56.3043 233.945 56.5963C233.55 56.3043 233.208 55.9726 232.932 55.6409H234.892ZM236.22 54.062L235.931 54.1283H233.524C233.655 53.8364 233.774 53.5445 233.879 53.2526L232.156 52.828C231.722 54.1416 230.893 55.3888 229.88 56.1584C230.288 56.3972 230.985 56.9545 231.301 57.2597C231.511 57.0739 231.708 56.8749 231.906 56.6493C232.116 56.928 232.353 57.1933 232.629 57.4587C231.945 57.8037 231.182 58.0956 230.38 58.2946V56.6626H228.814V63.1111H230.38V58.958C230.577 59.2499 230.748 59.5817 230.853 59.8205C231.985 59.5153 233.037 59.0907 233.971 58.5202C234.787 59.0509 235.76 59.4755 236.878 59.7409C237.102 59.2898 237.575 58.5733 237.917 58.215C236.97 58.0558 236.115 57.7904 235.392 57.4587C236.22 56.6891 236.878 55.7471 237.325 54.5794L236.22 54.062ZM235.273 60.2849C234.418 61.1473 232.695 61.7577 231.064 62.0629C231.393 62.3813 231.761 62.8988 231.958 63.257C233.8 62.7926 235.55 62.0231 236.628 60.8422L235.273 60.2849ZM233.971 59.0244C233.34 59.5817 232.09 60.0726 231.024 60.3247C231.379 60.6166 231.787 61.0677 232.011 61.4127C233.234 61.0279 234.51 60.4308 235.352 59.5949L233.971 59.0244ZM236.076 61.7842C234.971 62.9917 232.748 63.6418 230.419 63.947C230.788 64.345 231.182 64.9819 231.379 65.4463C234.024 64.9421 236.299 64.1062 237.707 62.4477L236.076 61.7842Z" fill="#E05418"/>
<path d="M247.494 56.9412H249.257C249.086 58.0956 248.836 59.1173 248.454 60.0063C248.02 59.0907 247.705 58.0691 247.481 56.981L247.494 56.9412ZM251.691 56.9412V55.1633H248.06C248.244 54.5131 248.389 53.8497 248.52 53.173L246.626 52.828C246.297 54.8183 245.705 56.7555 244.811 58.0823V53.6108H239.785V55.5082H242.916V57.4189H239.891V62.315C239.891 62.8192 239.667 63.0713 239.364 63.2172C239.667 63.6949 239.97 64.6635 240.062 65.2075C240.509 64.8625 241.206 64.5175 245.008 63.0978C244.903 62.6732 244.797 61.8506 244.797 61.28L241.824 62.2884V59.3163H244.811V58.9315C245.179 59.303 245.626 59.8072 245.824 60.0859C245.995 59.8603 246.166 59.6347 246.323 59.3826C246.586 60.2849 246.915 61.1075 247.31 61.8638C246.639 62.6467 245.784 63.257 244.692 63.7082C245.047 64.1327 245.6 65.035 245.784 65.4994C246.85 64.9819 247.731 64.345 248.468 63.5622C249.086 64.2787 249.823 64.8758 250.717 65.3534C250.993 64.8492 251.572 64.0797 252.006 63.7082C251.059 63.2836 250.296 62.6865 249.665 61.9302C250.441 60.5768 250.941 58.9182 251.256 56.9412H251.691Z" fill="#E05418"/>
<path d="M261.833 63.5224V62.8324H262.951V63.5224H261.833ZM257.308 63.5224H256.334V62.8324H257.308V63.5224ZM257.321 55.7736H256.282V54.9642H257.321V55.7736ZM261.793 54.9642H262.951V55.7736H261.793V54.9642ZM265.7 60.0461V58.3875H263.464L263.925 57.9496C263.701 57.7639 263.372 57.5649 263.017 57.3791H264.78V53.3587H260.07V57.3791H261.425L260.978 57.8037C261.346 57.9496 261.767 58.1619 262.136 58.3875H259.662C259.82 58.1089 259.978 57.817 260.123 57.5118L259.123 57.326V53.3587H254.598V57.3791H258.136C257.965 57.7241 257.768 58.0558 257.531 58.3875H253.611V60.0461H255.834C255.137 60.5635 254.282 61.0147 253.256 61.3994C253.598 61.7312 254.072 62.4609 254.256 62.912L254.598 62.7661V65.4463H256.334V65.1677H257.308V65.3667H259.136V61.1871H257.216C257.676 60.8289 258.071 60.4441 258.439 60.0461H260.491C260.833 60.4574 261.215 60.8422 261.636 61.1871H260.097V65.4463H261.833V65.1677H262.951V65.3667H264.793V62.9917L264.964 63.0447C265.227 62.5803 265.753 61.8638 266.161 61.5056C264.964 61.2004 263.819 60.6829 262.925 60.0461H265.7Z" fill="#E05418"/>
</svg>
