<svg width="640" height="64" viewBox="0 0 640 64" fill="currentColor" xmlns="http://www.w3.org/2000/svg"><g id="tabs" class="tabs"><g id="home" class="home"><path d="M16.082 34.0626L31.7876 18.357L47.4932 34.0626C48.1983 34.7677 49.3414 34.7677 50.0465 34.0626C50.7515 33.3576 50.7515 32.2144 50.0465 31.5094L33.0659 14.5288C32.7093 14.1722 32.2406 13.996 31.7733 14.0001C31.3155 14.0033 30.8587 14.1795 30.5094 14.5288L13.5288 31.5094C12.8237 32.2145 12.8237 33.3576 13.5288 34.0626C14.2339 34.7677 15.377 34.7677 16.082 34.0626Z" fill="#441919"/><path d="M47.086 35.3522L31.786 20.0522L16.486 35.3522V48.1022C16.486 49.5105 17.6277 50.6522 19.036 50.6522H26.686V37.0522H36.886V50.6522H44.536C45.9443 50.6522 47.086 49.5105 47.086 48.1022V35.3522Z" fill="#441919"/></g><g id="weapons" class="weapons"><path d="M103.24 14.2021L114.058 13L112.856 23.8187L94.8243 40.6873C94.4896 41.0004 93.9667 40.9917 93.6426 40.6676L90.6177 37.6427L100.835 27.425C101.167 27.093 101.167 26.5548 100.835 26.2229C100.503 25.8909 99.9653 25.8909 99.6333 26.2229L89.4156 36.4406L86.3907 33.4157C86.0666 33.0915 86.0578 32.5687 86.371 32.234L103.24 14.2021Z" fill="#441919"/><path d="M79.4984 31.9328C80.3283 31.1029 81.6738 31.1029 82.5036 31.9328L95.1255 44.5546C95.9554 45.3845 95.9554 46.73 95.1255 47.5598C94.2956 48.3897 92.9502 48.3897 92.1203 47.5598L88.2135 43.6531L82.8042 49.0624C81.4764 50.3902 79.3236 50.3902 77.9958 49.0624C76.6681 47.7347 76.6681 45.5819 77.9958 44.2541L83.4052 38.8447L79.4984 34.938C78.6686 34.1081 78.6686 32.7626 79.4984 31.9328Z" fill="#441919"/></g><g id="bows" class="bows"><path d="M140 12L152.622 16.2073L149.617 19.2125L169.554 39.15H175.631V42.55H170.593V47.5881H167.193V41.5968L147.212 21.6167L144.207 24.6219L140 12Z" fill="#441919"/><path d="M149.673 46.8039C144.787 40.8976 144.287 32.5829 148.173 26.1839L151.933 29.9432C149.904 34.1904 150.36 39.3283 153.302 43.1747L159.233 37.2437L162.239 40.2489L151.119 51.3682C150.289 52.198 148.944 52.198 148.114 51.3682C147.284 50.5383 147.284 49.1928 148.114 48.363L149.673 46.8039Z" fill="#441919"/><path d="M171.175 25.3023L165.244 31.2333L168.249 34.2385L179.368 23.1192C180.198 22.2894 180.198 20.9439 179.368 20.114C178.538 19.2842 177.193 19.2842 176.363 20.114L174.804 21.6731C168.898 16.7866 160.583 16.2867 154.184 20.1735L157.943 23.9328C162.19 21.9039 167.328 22.3604 171.175 25.3023Z" fill="#441919"/></g><g id="shields" class="shields"><path d="M224.239 43.2172C224.083 43.1771 223.953 43.0835 223.694 42.8962C222.805 42.2524 221.872 41.5021 220.998 40.6617C218.874 38.6201 217.857 36.7859 217.65 35.3014V26.01C217.65 25.534 217.65 25.2959 217.743 25.1141C217.824 24.9542 217.954 24.8241 218.114 24.7426C218.296 24.65 218.534 24.65 219.01 24.65H229.89C230.366 24.65 230.604 24.65 230.786 24.7426C230.946 24.8241 231.076 24.9542 231.157 25.1141C231.25 25.2959 231.25 25.534 231.25 26.01V35.3014C231.043 36.7859 230.026 38.6201 227.902 40.6617C227.028 41.5021 226.095 42.2524 225.206 42.8962C224.947 43.0835 224.817 43.1771 224.661 43.2172C224.529 43.2508 224.371 43.2508 224.239 43.2172Z" fill="#441919"/><path fill-rule="evenodd" clip-rule="evenodd" d="M225.576 51.6932C225.218 51.8886 225.039 51.9863 224.787 52.0372C224.592 52.0768 224.308 52.0768 224.113 52.0372C223.861 51.9863 223.682 51.8886 223.324 51.6932C220.046 49.9053 210.7 44.0996 210 35.7V19.72C210 18.7679 210 18.2919 210.185 17.9282C210.348 17.6083 210.608 17.3483 210.928 17.1853C211.292 17 211.768 17 212.72 17H236.18C237.132 17 237.608 17 237.972 17.1853C238.292 17.3483 238.552 17.6083 238.715 17.9282C238.9 18.2919 238.9 18.7679 238.9 19.72V35.7C238.2 44.0996 228.854 49.9053 225.576 51.6932ZM223.748 46.0175C223.993 46.1741 224.115 46.2524 224.258 46.2857C224.379 46.3138 224.521 46.3138 224.642 46.2857C224.785 46.2524 224.907 46.1741 225.152 46.0175C226.521 45.1386 228.165 43.9472 229.67 42.4998C232.045 40.2159 233.54 37.8162 233.8 35.4584V24.82C233.8 23.8679 233.8 23.3919 233.615 23.0282C233.452 22.7083 233.192 22.4483 232.872 22.2853C232.508 22.1 232.032 22.1 231.08 22.1H217.82C216.868 22.1 216.392 22.1 216.028 22.2853C215.708 22.4483 215.448 22.7083 215.285 23.0282C215.1 23.3919 215.1 23.8679 215.1 24.82V35.4584C215.36 37.8162 216.855 40.2159 219.23 42.4998C220.735 43.9472 222.379 45.1386 223.748 46.0175Z" fill="#441919"/></g><path id="clothes" fill-rule="evenodd" clip-rule="evenodd" d="M278.51 15.2717C278.741 15.1104 279.049 15.1203 279.275 15.2874C281.788 17.1438 284.896 18.2412 288.26 18.2412C291.624 18.2412 294.732 17.1438 297.245 15.2874C297.471 15.1203 297.779 15.1104 298.009 15.2717L310.519 24.0288L303.396 32.0423L299.835 30.2615L301.552 49.1548C301.586 49.5281 301.292 49.85 300.917 49.85L288.26 49.85H275.602C275.227 49.85 274.933 49.5281 274.967 49.1548L276.685 30.2615L273.123 32.0423L266 24.0288L278.51 15.2717ZM286.479 34.2683C286.479 35.2517 287.276 36.049 288.26 36.049C289.243 36.049 290.04 35.2517 290.04 34.2683C290.04 33.2848 289.243 32.4875 288.26 32.4875C287.276 32.4875 286.479 33.2848 286.479 34.2683ZM288.26 28.0355C287.276 28.0355 286.479 27.2383 286.479 26.2548C286.479 25.2713 287.276 24.474 288.26 24.474C289.243 24.474 290.04 25.2713 290.04 26.2548C290.04 27.2383 289.243 28.0355 288.26 28.0355Z" fill="#441919" class="clothes"/><g id="materials" class="materials"><path d="M350.375 14.6983C350.334 13.7728 351.074 13 352 13C352.926 13 353.666 13.7728 353.625 14.6983L353.184 24.6178C353.18 24.6901 353.171 24.7607 353.155 24.8289C352.739 24.8742 352.349 24.9 352 24.9C351.651 24.9 351.261 24.8742 350.845 24.8289C350.829 24.7607 350.82 24.6901 350.816 24.6178L350.375 14.6983Z" fill="#441919"/><path d="M349.336 24.6067L348.883 20.0791C342.836 19.6896 335 19.3442 335 30.85C335 37.6888 337.511 50.4 352 50.4C366.489 50.4 369 37.6888 369 30.85C369 19.3442 361.164 19.6896 355.117 20.0791L354.664 24.6067C356.212 24.3302 357.857 23.9133 358.987 23.6051C359.62 23.4327 360.093 23.9686 359.656 24.4568C358.699 25.5241 356.581 26.8839 352 26.8839C347.419 26.8839 345.301 25.5241 344.344 24.4568C343.907 23.9686 344.38 23.4327 345.013 23.6051C346.143 23.9133 347.788 24.3302 349.336 24.6067Z" fill="#441919"/></g><g id="food" class="food"><path fill-rule="evenodd" clip-rule="evenodd" d="M415.55 15C412.082 15 409.221 17.5956 408.803 20.95H405.35C403.003 20.95 401.1 22.8528 401.1 25.2V26.05H430V25.2C430 22.8528 428.097 20.95 425.75 20.95H422.297C421.879 17.5956 419.018 15 415.55 15ZM417.955 20.95C417.605 19.9596 416.66 19.25 415.55 19.25C414.44 19.25 413.495 19.9596 413.145 20.95H417.955Z" fill="#441919"/><path d="M398.55 27.75C397.142 27.75 396 28.8917 396 30.3C396 31.7083 397.142 32.85 398.55 32.85H401.1V45.6C401.1 47.9472 403.003 49.85 405.35 49.85H425.75C428.097 49.85 430 47.9472 430 45.6V32.85H432.55C433.958 32.85 435.1 31.7083 435.1 30.3C435.1 28.8917 433.958 27.75 432.55 27.75H398.55Z" fill="#441919"/></g><path id="other" d="M478.321 15.1046C478.872 13.6318 480.955 13.6318 481.506 15.1046L485.185 24.9442C485.424 25.5832 486.021 26.0174 486.703 26.0472L497.198 26.5058C498.769 26.5744 499.413 28.5557 498.182 29.5346L489.961 36.0744C489.427 36.499 489.199 37.2017 489.381 37.859L492.188 47.9821C492.608 49.4973 490.923 50.7218 489.612 49.8539L480.852 44.0561C480.283 43.6797 479.544 43.6797 478.975 44.0561L470.215 49.8539C468.904 50.7218 467.218 49.4973 467.638 47.9821L470.445 37.859C470.628 37.2017 470.399 36.499 469.866 36.0744L461.644 29.5346C460.414 28.5557 461.058 26.5744 462.629 26.5058L473.124 26.0472C473.805 26.0174 474.403 25.5832 474.642 24.9442L478.321 15.1046Z" fill="#441919" class="other"/><g id="horses" class="horses"><path fill-rule="evenodd" clip-rule="evenodd" d="M546.691 18.3333C546.72 18.3571 546.752 18.3769 546.786 18.3925C553.318 21.3749 557.871 28.0762 557.871 35.865C557.871 37.6936 557.62 39.4623 557.151 41.137C557.141 41.1745 557.125 41.2104 557.105 41.2435C553.269 47.4593 546.48 51.59 538.746 51.59C538.104 51.59 537.47 51.5616 536.842 51.5059C536.516 51.4769 536.356 51.0998 536.55 50.8358C536.574 50.8039 536.598 50.7719 536.621 50.74C539.869 46.3106 542.284 39.851 543.42 36.0941C543.545 35.6794 542.977 35.3156 542.601 35.5312C539.996 37.025 536.208 36.9087 534.3 36.3608C534.157 36.3196 534.005 36.3464 533.888 36.439C532.904 37.2181 528.179 40.6864 525.146 37.99C522.3 35.4602 525.336 32.9304 527.952 30.7508C528.852 30.001 529.702 29.2926 530.246 28.64C531.308 27.365 531.733 26.1962 532.158 25.0275C532.583 23.8587 533.008 22.69 534.071 21.415C535.749 19.401 538.394 19.1544 539.552 19.2847C539.582 19.2881 539.611 19.2873 539.641 19.282C539.791 19.2556 539.897 19.1222 539.89 18.9703L539.639 13.4452C539.623 13.0774 540.05 12.8638 540.334 13.0979L546.691 18.3333ZM539.675 23.3703C539.636 23.2732 539.556 23.2024 539.456 23.1721C538.977 23.0275 537.488 22.6733 536.621 23.54C535.671 24.4895 535.721 25.945 535.792 26.5545C535.812 26.7272 535.947 26.8573 536.12 26.8734C536.754 26.9325 538.291 26.9699 539.171 26.09C540.213 25.048 539.845 23.7939 539.675 23.3703Z" fill="#441919"/><path d="M559.825 43.0613C559.529 43.0767 559.317 42.7861 559.406 42.5035C560.065 40.4114 560.421 38.1806 560.421 35.865C560.421 26.8313 555.003 19.0885 547.3 15.8327C546.988 15.7004 546.934 15.274 547.218 15.0872C547.389 14.9746 547.562 14.8644 547.737 14.7568C547.829 14.6996 547.941 14.6811 548.047 14.7051C557.559 16.8592 564.671 25.5149 564.671 35.865C564.671 38.0959 564.34 40.2481 563.727 42.2734C563.684 42.4159 563.568 42.5243 563.423 42.5578C562.257 42.8263 561.055 42.9971 559.825 43.0613Z" fill="#441919"/></g><g id="master" class="master"><path d="M608.096 11L618.644 29.275H597.548L608.096 11Z" fill="#441919"/><path d="M608.096 47.55H629.192L618.644 29.275L608.096 47.55Z" fill="#441919"/><path d="M608.096 47.55L597.548 29.275L587 47.55H608.096Z" fill="#441919"/></g></g></svg>