<svg width="360" height="66" viewBox="0 0 360 66" fill="none" xmlns="http://www.w3.org/2000/svg">
<path fill-rule="evenodd" clip-rule="evenodd" d="M239.773 65.8886H255.67L255.761 62.4375L257.214 65.8886H266.525L266.026 64.7988C261.726 61.5899 259.576 58.5626 259.576 55.717L259.213 40.5049L271.113 12.1242C272.385 8.40068 275.428 4.88905 280.242 1.58932V0.544909H274.883C273.399 0.544909 271.946 0.363273 270.522 0C269.16 0.363273 267.737 0.544909 266.253 0.544909H259.939V1.58932C262.059 4.46523 263.346 5.90318 263.8 5.90318C263.8 7.14436 262.816 11.0041 260.848 17.4825C258.88 23.9306 256.821 28.4261 254.671 30.969H254.126L252.763 25.0658L251.083 19.5259C250.053 15.1061 249.008 12.8962 247.949 12.8962C247.949 12.1999 248.297 11.8518 248.993 11.8518C248.297 9.76296 247.949 7.96173 247.949 6.44809C250.462 3.20891 252.067 1.58932 252.763 1.58932V0.544909H249.538C248.751 0.544909 248.024 0.363273 247.358 0C246.752 0.363273 246.041 0.544909 245.223 0.544909H237.684C236.109 0.544909 234.671 0.893046 233.369 1.58932C233.369 0.893046 231.385 0.363273 227.419 0C226.722 0 226.374 0.348136 226.374 1.04441C226.374 1.37741 228.357 3.17864 232.324 6.44809C233.384 6.44809 234.277 8.14336 235.004 11.5339C237.214 12.3513 238.319 13.4714 238.319 14.8942V17.0738L237.774 18.1636C238.138 18.1636 238.319 18.3301 238.319 18.6631V19.753L237.774 20.8428C240.833 30.2879 243.815 38.8096 246.722 46.4081V58.941L239.773 65.8886ZM242.725 17.6641L246.821 29.8662L249.266 31.4269L249.53 28.3764L242.725 17.6641ZM250.653 34.3355L253.098 36.1091L252.371 39.0887L249.926 37.457L250.653 34.3355ZM252.965 60.1732L251.446 45.1334L252.965 42.3667L254.551 45.1334L252.965 60.1732Z" fill="#E05418"/>
<path fill-rule="evenodd" clip-rule="evenodd" d="M182.226 33.5119C182.438 36.2365 182.544 38.3101 182.544 39.733C185.117 40.9136 186.404 42.2153 186.404 43.6381L185.541 44.0014H166.692V43.6381L172.279 39.0064V26.8368C172.279 26.5946 172.127 26.4735 171.824 26.4735L172.279 25.7924V7.22005C172.279 5.71114 171.173 4.1142 168.961 2.42921C166.903 3.14365 165.874 4.98278 165.874 7.94659V14.6217C165.874 16.2867 166.101 17.1192 166.556 17.1192L165.874 21.2969V39.5513L166.556 45.4091L165.193 46.2265C159.894 38.7491 153.853 30.7117 147.07 22.1142C147.07 21.2969 146.404 20.4644 145.072 19.6167V40.5503C148.16 41.6704 149.705 42.7754 149.705 43.8652H132.239C132.126 44.1074 131.877 44.2285 131.491 44.2285C128.372 43.9863 126.813 43.6381 126.813 43.184C125.753 43.6381 124.618 43.8652 123.407 43.8652H117.411C116.775 43.8652 116.215 43.9863 115.731 44.2285C115.216 43.9863 114.64 43.8652 114.005 43.8652H111.461V43.184C112.036 43.184 113.308 42.1094 115.276 39.96C115.276 38.961 115.004 37.7804 114.459 36.4181C115.004 36.4181 115.276 36.1759 115.276 35.6915C114.428 35.6915 113.717 34.0417 113.142 30.742H104.194C102.498 36.3121 101.65 39.5059 101.65 40.3233C102.014 40.3233 103.149 41.2769 105.057 43.184V43.8652H100.787C99.6366 43.8652 98.5011 43.9863 97.3808 44.2285C96.2907 43.9863 95.1552 43.8652 93.9743 43.8652H89.7502V43.184C93.5655 41.0044 95.9727 37.6895 96.972 33.2395L105.511 5.17664V4.81336C103.24 3.26945 102.104 2.20991 102.104 1.63473C103.982 0.938455 105.254 0.590318 105.92 0.590318H115.731C118.274 10.1262 120.257 17.1041 121.681 21.5239L121.272 22.205V22.9316C121.272 23.1738 121.408 23.2949 121.681 23.2949L121.272 24.0214V25.4291C121.272 26.3675 122.256 27.8963 124.224 30.0154C125.647 36.6451 126.783 39.96 127.631 39.96C129.266 41.0868 130.472 41.9474 131.25 42.5418C132 41.8833 133.307 41.2195 135.17 40.5503V4.58632L129.811 2.08882V0.408682H138.486C142.12 0.408682 145.238 3.19377 147.843 8.76396L156.336 19.6167V4.58632C155.912 4.58632 154.353 3.75382 151.658 2.08882V0.408682H171.234V0.454091H188.085L182.544 5.08582V20.7974C181.998 22.4926 181.726 23.4462 181.726 23.6581V24.9296C182.483 24.082 184.542 21.3271 187.903 16.6651C188.357 15.9386 188.948 15.0455 189.674 13.986C190.553 12.7751 191.597 11.3523 192.808 9.71755C195.11 6.69027 196.26 4.79823 196.26 4.04141C195.897 4.04141 194.868 3.13323 193.172 1.31686V0.681136H198.259C199.44 0.681136 200.939 0.560046 202.755 0.317864C203.876 0.560046 205.042 0.681136 206.253 0.681136H210.522V1.31686C206.677 3.37541 204.239 5.57018 203.21 7.90118C199.576 12.5026 196.412 16.544 193.717 20.0254C197.684 26.2616 200.727 32.0588 202.846 37.4171C203.422 39.5362 204.133 40.5957 204.981 40.5957C208.16 42.624 209.75 43.7592 209.75 44.0014C209.75 44.4252 209.478 44.6371 208.933 44.6371C205.753 44.395 204.164 44.062 204.164 43.6381C203.134 44.062 201.983 44.2739 200.712 44.2739H194.671C194.035 44.2739 193.475 44.395 192.99 44.6371C192.445 44.395 191.855 44.2739 191.219 44.2739H188.63V43.6381C189.205 43.6381 190.492 42.624 192.491 40.5957C192.491 39.6573 192.021 37.9469 191.083 35.4645L189.72 32.0134L187.358 28.4715C187.267 28.2899 187.161 28.1082 187.04 27.9266C185.466 29.8338 183.861 31.6955 182.226 33.5119ZM108.917 15.1212C107.192 20.6006 106.329 23.9155 106.329 25.0658C107.479 25.0658 108.055 25.535 108.055 26.4735L111.461 24.7025L109.326 15.1212H108.917Z" fill="#E05418"/>
<path d="M52.2332 0.408682H49.6442V1.86177C52.2483 3.85977 53.5503 5.28259 53.5503 6.13023V17.6187C53.5503 18.1031 53.8229 18.3453 54.3679 18.3453L53.9591 20.8428C53.9591 21.8115 54.2468 23.2343 54.8221 25.1112L53.5503 31.196C53.8229 31.196 53.9591 31.3171 53.9591 31.5593C53.6866 31.5593 53.5503 31.6804 53.5503 31.9226V38.3707C53.5503 39.7632 51.6881 41.4434 47.9637 43.4111V44.0922H68.9932V43.729C66.5102 41.3677 65.0871 40.187 64.7237 40.187C64.4209 37.9469 63.8456 35.9186 62.9977 34.1022C62.9977 32.7097 63.4217 30.6663 64.2695 27.972V24.4301H74.5799V39.4605C72.8539 41.3677 71.7033 42.3213 71.1279 42.3213V43.0478C72.975 43.7441 74.4133 44.0922 75.4428 44.0922H88.3422C88.7661 44.0922 89.19 43.623 89.6139 42.6845L86.6162 40.5049C85.7684 40.5049 84.9054 36.5695 84.0273 28.6985C84.9054 28.6985 85.3444 28.4564 85.3444 27.972V15.8024C85.3444 14.985 84.9054 13.5622 84.0273 11.5339C84.9054 10.989 85.3444 10.1565 85.3444 9.03641V5.08582C89.0689 2.20991 90.9311 0.650864 90.9311 0.408682H69.8562L74.5799 5.08582V19.0264L73.7169 18.6631H65.1325L64.2695 19.0264C64.2695 16.4532 63.9818 14.7882 63.4065 14.0314C63.9818 12.0031 64.2695 9.36941 64.2695 6.13023V5.08582L68.9932 0.408682H53.5503L52.6874 0.771955C52.6874 0.529773 52.536 0.408682 52.2332 0.408682Z" fill="#E05418"/>
<path fill-rule="evenodd" clip-rule="evenodd" d="M5.72294 1.08982C4.29977 0.726546 2.58895 0.544909 0.590462 0.544909L0 4.26845V26.7005H0.590462C5.31416 15.9537 8.35731 9.89918 9.71991 8.53691H15.4428C15.4428 12.1091 16.0182 17.089 17.1688 23.4765C16.0182 31.7712 15.4428 38.8853 15.4428 44.8188V45.3637C15.4428 48.2093 15.6397 51.5847 16.0333 55.4899C15.6397 56.0954 15.4428 56.8068 15.4428 57.6241C15.4428 59.4405 13.1567 61.9229 8.58441 65.0712V65.6161H37.2445V64.5717C31.8849 61.6353 29.2051 58.608 29.2051 55.4899C29.2051 53.5525 29.402 50.177 29.7956 45.3637C29.7956 44.5463 29.5988 43.8349 29.2051 43.2295C29.5988 40.2022 29.7956 37.7047 29.7956 35.737V8.53691H36.0636C37.9712 13.5319 39.8789 16.0294 41.7865 16.0294V18.1636C41.7865 19.647 42.7403 22.4926 44.648 26.7005H45.8289V3.72355L45.2385 2.67914C44.6026 2.67914 44.2241 3.02727 44.103 3.72355L41.2415 0.544909H28.6147C22.9523 0.544909 15.3217 0.726546 5.72294 1.08982ZM25.2058 25.5414L23.2169 10.3987L21.1514 25.5414L23.2169 28.3536L25.2058 25.5414ZM21.0749 34.3386L23.2169 36.9345L25.4353 34.3386L23.2169 31.6706L21.0749 34.3386ZM23.2169 58.3507L21.1514 43.0637L23.2169 40.2515L25.2058 43.0637L23.2169 58.3507Z" fill="#E05418"/>
<path d="M293.323 16.7105H294.413C295.382 16.7105 297.184 18.209 299.818 21.206V22.1142C296.942 25.1415 295.503 27.2455 295.503 28.4261H294.413C293.263 28.4261 291.083 26.0194 287.873 21.206L293.323 16.7105Z" fill="#E05418"/>
<path fill-rule="evenodd" clip-rule="evenodd" d="M288.963 0.408682H295.503C305.889 0.408682 312.036 6.43295 313.944 18.4815V23.0224C313.944 30.409 311.416 35.2223 306.359 37.4625C306.359 40.3081 302.377 42.4272 294.413 43.8198C282.301 43.8198 275.428 36.2819 273.793 21.206C273.793 13.0627 278.138 6.73568 286.828 2.22505C287.04 1.01414 287.752 0.408682 288.963 0.408682ZM286.828 13.986V27.5179C286.828 34.1476 289.72 37.4625 295.503 37.4625C299.107 37.4625 301.272 32.9519 301.998 23.9306V19.3897C301.998 10.3684 299.107 5.85777 293.323 5.85777C288.993 7.37141 286.828 10.0808 286.828 13.986Z" fill="#E05418"/>
<path d="M343.649 5.08582V22.0234H343.558V23.9306C342.952 32.9519 341.075 37.4625 337.926 37.4625C332.869 37.4625 330.341 34.1628 330.341 27.5633V22.0234H330.295C330.204 17.21 329.932 14.4855 329.478 13.8498C330.023 11.8518 330.295 9.23318 330.295 5.994V4.94959L335.064 0.272455H319.576L318.713 0.635727C318.713 0.393545 318.577 0.272455 318.304 0.272455H315.715V1.68014C318.289 3.67814 319.576 5.11609 319.576 5.994V17.4825C320.394 19.6621 320.242 21.751 319.122 23.749C320.666 37.1295 326.616 43.8198 336.972 43.8198C343.906 42.4272 347.373 40.3081 347.373 37.4625C351.612 35.2829 353.823 30.742 354.005 23.8398L354.413 15.8478C354.413 15.0001 353.989 13.5622 353.142 11.5339C353.989 10.989 354.413 10.1565 354.413 9.03641V5.08582C358.138 2.20991 360 0.650864 360 0.408682H338.925L343.649 5.08582Z" fill="#E05418"/>
</svg>
