<svg width="136" height="36" viewBox="0 0 136 36" fill="none" xmlns="http://www.w3.org/2000/svg">
<path fill-rule="evenodd" clip-rule="evenodd" d="M20.8943 0H33.9623C33.7478 0.558904 33.0383 1.46301 31.8338 2.71233C33.0383 6.09863 33.6405 8.12055 33.6405 8.77808L33.0465 8.48219H32.7248C33.7973 11.1288 34.911 13.4466 36.066 15.4356C36.066 15.9288 36.2723 16.8329 36.6848 18.1479H36.9818L41.5358 2.41644C41.3543 2.41644 40.752 1.70959 39.729 0.29589V0H46.7085V1.20822C46.7085 2.21096 46.5022 2.71233 46.0897 2.71233C46.8982 4.66849 47.3025 6.08219 47.3025 6.95342H46.7085C47.88 8.08767 49.299 11.8192 50.9655 18.1479H51.2625C51.2625 16.6521 52.6815 12.7233 55.5195 6.36164C55.7175 6.36164 55.8165 6.15616 55.8165 5.74521H55.1977C55.1977 5.35069 55.404 4.33973 55.8165 2.71233C55.8165 2.49863 55.206 1.69315 53.985 0.29589V0H62.796V0.29589C60.981 2.79452 59.1577 7.03562 57.3262 13.0192C57.0292 13.0192 56.724 13.4219 56.4105 14.2274C56.625 14.6055 56.7322 14.9014 56.7322 15.1151C56.7322 15.7068 56.1217 16.9233 54.9007 18.7644C54.9007 20.6877 53.1847 26.4329 49.7527 36H49.431C47.814 31.0685 46.7002 26.9342 46.0897 23.5973C45.4132 23.5973 44.2995 20.7699 42.7485 15.1151H42.4515C41.0985 19.9644 39.8858 22.9973 38.8133 24.2137L38.5163 24.8055L38.8133 26.3096C38.4503 27.5918 37.5345 29.4082 36.066 31.7589L36.3878 33.2877C35.9753 35.0959 35.571 36 35.175 36L27.2798 11.7863C27.4778 11.4082 27.5768 11.1123 27.5768 10.8986L26.661 10.2822L27.5768 8.77808C26.7683 7.75891 26.364 6.95343 26.364 6.36164H26.067L25.4483 6.65753C25.4483 4.52055 23.9303 2.50685 20.8943 0.616438V0ZM30.1275 12.0932L28.8615 5.60656L31.7099 11.5496L31.3231 13.1078L30.1275 12.0932ZM31.3934 16.1881L31.8506 14.6299L33.1165 15.6083L32.6594 17.1303L31.3934 16.1881ZM32.8 20.2468L33.1868 18.761L34.3825 19.7032L35.6484 26.2623L32.8 20.2468Z" fill="#E05418"/>
<path d="M70.1718 14.7664H70.7647C71.2916 14.7664 72.2715 15.5813 73.7042 17.2111V17.7049C72.1397 19.3511 71.3575 20.4952 71.3575 21.1373H70.7647C70.1389 21.1373 68.9532 19.8285 67.2076 17.2111L70.1718 14.7664Z" fill="#E05418"/>
<path fill-rule="evenodd" clip-rule="evenodd" d="M67.8005 5.90164H71.3575C77.0059 5.90164 80.3488 9.17758 81.3863 15.7295V18.1988C81.3863 22.2155 80.0113 24.833 77.2612 26.0512C77.2612 27.5986 75.0957 28.7509 70.7647 29.5082C64.1776 29.5082 60.4393 25.4092 59.5501 17.2111C59.5501 12.7828 61.9133 9.34221 66.6395 6.88936C66.7548 6.23088 67.1418 5.90164 67.8005 5.90164ZM66.6395 13.2849V20.6434C66.6395 24.2486 68.2122 26.0512 71.3575 26.0512C73.3172 26.0512 74.4946 23.5983 74.8898 18.6926V16.2233C74.8898 11.3176 73.3172 8.86481 70.1718 8.86481C67.817 9.68791 66.6395 11.1613 66.6395 13.2849Z" fill="#E05418"/>
<path d="M78.4355 5.90164H88.9198C88.7542 6.26192 88.1828 6.85967 87.2056 7.69488C88.1828 9.93847 88.6714 11.2814 88.6714 11.7235L88.1993 11.527H87.9509C88.8122 13.2793 89.7066 14.8187 90.6341 16.1452C90.6341 16.4727 90.7914 17.0705 91.1061 17.9384H91.3546L95.0067 7.49836C94.8742 7.49836 94.3939 7.03162 93.5657 6.09816V5.90164H99.1557V6.68772C99.1557 7.35916 98.9984 7.69488 98.6837 7.69488C99.3296 9.005 99.6526 9.94666 99.6526 10.5198H99.1557C100.1 11.2732 101.243 13.746 102.584 17.9384H102.833C102.833 16.9558 103.967 14.3438 106.236 10.1022C106.402 10.1022 106.485 9.97122 106.485 9.7092H105.988C105.988 9.44717 106.154 8.77573 106.485 7.69488C106.485 7.54749 105.996 7.01525 105.019 6.09816V5.90164H112.075V6.09816C110.617 7.75219 109.16 10.5608 107.702 14.5239C107.454 14.5239 107.205 14.7941 106.957 15.3346C107.123 15.5966 107.205 15.8013 107.205 15.9487C107.205 16.3417 106.717 17.1442 105.74 18.356C105.74 19.6334 104.356 23.4492 101.59 29.8033H101.367C100.058 26.528 99.164 23.7849 98.6837 21.574C98.1371 21.574 97.2427 19.6989 96.0005 15.9487H95.752C94.6755 19.1585 93.6982 21.1646 92.8204 21.9671L92.572 22.3601L92.8204 23.3673C92.5388 24.2189 91.8101 25.4225 90.6341 26.9783L90.8825 27.9855C90.5513 29.1973 90.22 29.8033 89.8888 29.8033L83.5534 13.7378C83.7191 13.4758 83.8019 13.2711 83.8019 13.1237L83.0565 12.7307L83.8019 11.7235C83.1559 11.0521 82.8329 10.5117 82.8329 10.1022H82.5845L82.0876 10.3233C82.0876 8.89856 80.8702 7.55568 78.4355 6.29468V5.90164Z" fill="#E05418"/>
<path d="M128.113 15.2793L127.32 14.5702C125.801 14.7638 124.341 15.1908 123.028 15.6955C120.169 16.7953 118.826 16.9581 118.071 16.8433C117.979 16.8293 117.884 16.8094 117.785 16.7796C117.73 16.7629 117.674 16.746 117.618 16.729C117.577 16.7163 117.535 16.7036 117.493 16.6908C116.053 16.2518 114.545 15.7918 113.339 16.6013C112.31 17.2929 112.075 18.6261 112.99 19.4363C113.488 19.877 114.027 20.2739 114.624 20.6024C114.705 20.6024 114.781 20.597 114.853 20.5918C115.053 20.5775 115.229 20.5649 115.405 20.6699C115.798 20.9042 116.715 21.2558 116.977 21.2558C117.061 21.2558 117.251 21.2082 117.479 21.1509C117.968 21.0284 118.633 20.8617 118.811 21.0214C118.929 21.1269 119.08 21.3363 119.213 21.541C121.031 21.4151 122.976 20.8235 125.1 20.0065C126.437 19.4924 127.682 19.1971 128.768 19.1564V19.1464C130.864 18.7949 131.781 19.3808 131.781 19.3808C131.486 19.3808 131.075 19.3916 130.693 19.4204C130.866 19.4822 131.03 19.5502 131.191 19.6168C132.137 20.0084 132.963 20.3508 134.787 19.0985C135.624 18.524 135.622 17.2713 134.945 16.5794C134.933 16.5673 134.928 16.5625 134.928 16.5625C134.928 16.5625 134.93 16.5646 134.934 16.5681C134.955 16.5902 135.029 16.6673 134.979 16.6224C134.899 16.5504 134.871 16.5275 134.785 16.4618C134.709 16.4043 134.427 16.2158 133.864 15.8388C132.571 14.9741 131.48 14.6012 129.856 14.4877C129.228 14.4438 128.601 14.4518 127.982 14.5013L128.113 15.2793Z" fill="#E05418"/>
<path d="M16.2585 15.2793L15.4658 14.5702C13.9465 14.7638 12.4867 15.1908 11.1743 15.6955C8.31445 16.7953 6.97159 16.9581 6.21666 16.8433C6.1247 16.8293 6.03019 16.8094 5.93107 16.7796C5.8756 16.7629 5.82001 16.746 5.76429 16.729C5.72252 16.7163 5.68068 16.7036 5.63879 16.6908C4.19924 16.2518 2.69055 15.7918 1.48526 16.6013C0.455539 17.2929 0.220717 18.6261 1.13591 19.4363C1.6337 19.877 2.17309 20.2739 2.77034 20.6024C2.85049 20.6024 2.92639 20.597 2.99915 20.5918C3.19879 20.5775 3.37487 20.5649 3.55096 20.6699C3.94397 20.9042 4.86102 21.2558 5.12304 21.2558C5.20654 21.2558 5.39653 21.2082 5.6251 21.1509C6.11368 21.0284 6.77861 20.8617 6.95711 21.0214C7.07505 21.1269 7.22617 21.3363 7.35912 21.541C9.177 21.4151 11.1218 20.8235 13.2462 20.0065C14.5831 19.4924 15.8275 19.1971 16.9136 19.1564V19.1464C19.0097 18.7949 19.9267 19.3808 19.9267 19.3808C19.6322 19.3808 19.2213 19.3916 18.839 19.4204C19.0122 19.4822 19.1764 19.5502 19.3372 19.6168C20.2827 20.0084 21.1094 20.3508 22.9334 19.0985C23.7702 18.524 23.7678 17.2713 23.0912 16.5794C23.0793 16.5673 23.0746 16.5625 23.0746 16.5625C23.0746 16.5625 23.0766 16.5646 23.08 16.5681C23.1011 16.5902 23.1748 16.6673 23.1249 16.6224C23.045 16.5504 23.0174 16.5275 22.931 16.4618C22.8556 16.4043 22.5736 16.2158 22.0098 15.8388C20.7167 14.9741 19.6261 14.6012 18.0022 14.4877C17.3737 14.4438 16.7471 14.4518 16.1281 14.5013L16.2585 15.2793Z" fill="#E05418"/>
</svg>
